<svg width="24" height="22" viewBox="0 0 24 22" fill="none" xmlns="http://www.w3.org/2000/svg">
<g clip-path="url(#clip0_33_954)">
<path d="M10.7118 1.1751L1.76812 4.87588C1.27078 5.08167 1.27593 5.78807 1.77646 5.98654L10.7574 9.54801C11.5465 9.86101 12.4253 9.86101 13.2144 9.54801L22.1956 5.98645C22.6959 5.78817 22.7012 5.08176 22.2037 4.87588L13.2602 1.17501C12.4443 0.837416 11.5277 0.837509 10.7118 1.1751Z" fill="#FFBF00"/>
<path d="M12.7828 11.4929V20.3899C12.7828 20.8131 13.2094 21.1029 13.6027 20.947L23.6104 17.0625C23.722 17.0182 23.8177 16.9415 23.8852 16.8421C23.9526 16.7428 23.9887 16.6255 23.9887 16.5055V7.60833C23.9887 7.18515 23.562 6.89546 23.1686 7.05136L13.161 10.9358C13.0494 10.9801 12.9536 11.0568 12.8862 11.1562C12.8187 11.2555 12.7827 11.3728 12.7827 11.4929" fill="#26B5F8"/>
<path d="M10.4459 11.9519L7.47591 13.3859L7.17431 13.5317L0.904687 16.5358C0.507281 16.7275 0 16.4379 0 15.9964V7.64563C0 7.48588 0.0819375 7.34797 0.191813 7.24409C0.236854 7.19933 0.287907 7.16106 0.3435 7.13038C0.493313 7.04047 0.707062 7.01647 0.88875 7.08838L10.3959 10.8553C10.8792 11.047 10.9172 11.7242 10.4459 11.9519Z" fill="#ED3049"/>
<path d="M10.4459 11.952L7.4759 13.386L0.191711 7.24422C0.236753 7.19946 0.287806 7.16118 0.343399 7.1305C0.493211 7.04059 0.706961 7.01659 0.888649 7.0885L10.3958 10.8554C10.8791 11.0471 10.9172 11.7242 10.4459 11.952Z" fill="black" fill-opacity="0.25"/>
</g>
<defs>
<clipPath id="clip0_33_954">
<rect width="24" height="20.1562" fill="white" transform="translate(0 0.921875)"/>
</clipPath>
</defs>
</svg>
