<svg width="25" height="24" viewBox="0 0 25 24" fill="none" xmlns="http://www.w3.org/2000/svg">
<path d="M24.5 14.4811L12.5 13.0023L0.5 14.4811L12.5 23.8764L24.5 14.4811Z" fill="#FCBF92"/>
<path d="M0.5 14.4813L12.5 18.0707V23.8766L0.5 17.8589V14.4813Z" fill="#9D5025"/>
<path d="M24.5 14.4813L12.5 18.0707V23.8766L24.5 17.8589V14.4813Z" fill="#F58534"/>
<path d="M2.04941 9.37769H0.5V12.7906L2.04941 13.073L3.77176 11.2447L2.04941 9.37769Z" fill="#9D5025"/>
<path d="M3.77167 12.9318L2.04932 13.073V9.37769H3.77167V12.9318Z" fill="#F58534"/>
<path d="M4.93294 5.12122L2.89294 5.50592V13.2495L4.93294 13.673L6.8 9.37769L4.93294 5.12122Z" fill="#9D5025"/>
<path d="M6.80004 13.4612L4.93298 13.673V5.12122L6.80004 5.33298V13.4612Z" fill="#F58534"/>
<path d="M8.91071 6.84351L6.09424 7.12586V13.9164L8.91071 14.4812L11.9001 10.6447L8.91071 6.84351Z" fill="#9D5025"/>
<path d="M10.8095 14.1635L8.91064 14.4812V6.84351L10.8095 6.98468V14.1635Z" fill="#F58534"/>
<path d="M12.4999 0.684692L10.6011 1.28469V14.7988L12.4999 15.1835L14.3987 7.9341L12.4999 0.684692Z" fill="#9D5025"/>
<path d="M14.2576 14.1635L16.0893 14.4812L18.9058 9.37762L16.0893 4.30939L14.2576 4.59174V14.1635Z" fill="#9D5025"/>
<path d="M18.9058 9.37762L16.0893 4.30939L14.2576 4.59174" fill="#9D5025"/>
<path d="M18.1647 13.4612L20.067 13.6729L22.107 7.23175L20.067 0.825867L18.1647 1.28469V13.4612Z" fill="#9D5025"/>
<path d="M21.2283 12.9318L22.9506 13.0729L24.5 6.70236L22.9506 0.123535L21.2283 0.547065V12.9318Z" fill="#9D5025"/>
<path d="M12.5 0.684692L14.3988 1.28469V14.7988L12.5 15.1835V0.684692Z" fill="#F58534"/>
<path d="M18.9058 4.87409L16.0894 4.30939V14.4812L18.9058 13.9164V4.87409Z" fill="#F58534"/>
<path d="M22.1071 1.63763L20.0671 0.825867V13.6729L22.1071 13.2494V1.63763Z" fill="#F58534"/>
<path d="M24.5 0.896476L22.9506 0.123535V13.0729L24.5 12.7906V0.896476Z" fill="#F58534"/>
</svg>
