<svg width="24" height="16" viewBox="0 0 24 16" fill="none" xmlns="http://www.w3.org/2000/svg">
<g clip-path="url(#clip0_33_969)">
<path d="M6.78679 6.02546C6.78679 6.31956 6.81867 6.55796 6.87426 6.73281C6.94485 6.92951 7.02983 7.12075 7.12851 7.30496C7.16826 7.36853 7.18411 7.43209 7.18411 7.48778C7.18411 7.56718 7.13648 7.64668 7.03317 7.72618L6.53254 8.05993C6.46101 8.10765 6.38948 8.13146 6.32583 8.13146C6.24642 8.13146 6.16692 8.09171 6.08742 8.02018C5.98026 7.9052 5.88447 7.78011 5.80139 7.64668C5.72189 7.51168 5.64239 7.36056 5.55501 7.17784C4.93508 7.9089 4.15626 8.27446 3.21858 8.27453C2.55108 8.27453 2.01858 8.08375 1.62914 7.70237C1.23979 7.32081 1.04114 6.81221 1.04114 6.1765C1.04114 5.50103 1.27954 4.95268 1.76433 4.53943C2.24901 4.12618 2.89279 3.91956 3.71133 3.91956C3.98151 3.91956 4.25967 3.94337 4.55367 3.98312C4.84776 4.02287 5.14973 4.08643 5.46764 4.15796V3.57784C5.46764 2.97381 5.34042 2.55268 5.09404 2.30631C4.83979 2.05993 4.41061 1.94068 3.7987 1.94068C3.52054 1.94068 3.23451 1.97256 2.94042 2.04409C2.64633 2.11562 2.36029 2.203 2.08214 2.31428C1.95501 2.36987 1.85967 2.40165 1.80398 2.41759C1.74829 2.43353 1.70864 2.4414 1.67686 2.4414C1.56558 2.4414 1.50998 2.3619 1.50998 2.19503V1.80559C1.50998 1.67846 1.52592 1.58312 1.56558 1.52753C1.60533 1.47184 1.67686 1.41625 1.78814 1.36065C2.06626 1.21753 2.40001 1.09831 2.78939 1.003C3.17892 0.899683 3.59217 0.852058 4.02923 0.852058C4.97498 0.852058 5.66639 1.06656 6.11142 1.49575C6.54848 1.92484 6.77104 2.5765 6.77104 3.45071V6.02546H6.78679ZM3.56029 7.23343C3.82261 7.23343 4.09279 7.18581 4.37883 7.09037C4.66495 6.99503 4.91929 6.82018 5.13379 6.58178C5.26101 6.43084 5.35636 6.26396 5.40398 6.07318C5.4517 5.8825 5.48348 5.65196 5.48348 5.38178V5.04803C5.24247 4.98941 4.99837 4.94431 4.75233 4.91293C4.50456 4.8815 4.25508 4.86556 4.00533 4.86521C3.47283 4.86521 3.08348 4.96853 2.82126 5.18312C2.55904 5.39771 2.43183 5.69968 2.43183 6.097C2.43183 6.4705 2.52717 6.74865 2.72583 6.93943C2.91661 7.13809 3.19476 7.23343 3.56029 7.23343ZM9.94176 8.09171C9.7987 8.09171 9.70336 8.0679 9.63979 8.01221C9.57623 7.96459 9.52054 7.85331 9.47292 7.70237L7.60542 1.55931C7.55761 1.40031 7.53379 1.297 7.53379 1.2414C7.53379 1.11428 7.59736 1.04265 7.72457 1.04265H8.50336C8.65429 1.04265 8.7577 1.06656 8.81329 1.12215C8.87686 1.16987 8.92458 1.28115 8.9722 1.43209L10.3073 6.69306L11.547 1.43209C11.5868 1.27318 11.6345 1.16987 11.698 1.12215C11.7616 1.07453 11.8729 1.04275 12.016 1.04275H12.6517C12.8026 1.04275 12.906 1.06656 12.9695 1.12215C13.0332 1.16987 13.0888 1.28115 13.1205 1.43209L14.3762 6.75662L15.751 1.43209C15.7986 1.27318 15.8543 1.16987 15.9099 1.12215C15.9735 1.07453 16.0768 1.04275 16.2198 1.04275H16.9589C17.0861 1.04275 17.1576 1.10631 17.1576 1.2414C17.1576 1.28115 17.1496 1.3209 17.1417 1.36853C17.1337 1.41615 17.1179 1.47981 17.0861 1.56728L15.1708 7.71025C15.1231 7.86925 15.0675 7.97256 15.0039 8.02018C14.9403 8.0679 14.837 8.09968 14.702 8.09968H14.0186C13.8675 8.09968 13.7642 8.07587 13.7006 8.02018C13.637 7.96459 13.5814 7.86128 13.5496 7.70237L12.3178 2.5765L11.094 7.69431C11.0543 7.85331 11.0066 7.95662 10.943 8.01221C10.8794 8.0679 10.7682 8.09171 10.6252 8.09171H9.94176ZM20.1537 8.30631C19.7404 8.30631 19.3272 8.25859 18.9299 8.16325C18.5324 8.0679 18.2226 7.9645 18.016 7.84543C17.8888 7.77381 17.8013 7.6944 17.7696 7.62287C17.7387 7.55271 17.7225 7.47697 17.7219 7.40031V6.99503C17.7219 6.82815 17.7854 6.74865 17.9047 6.74865C17.9534 6.74883 18.0017 6.75691 18.0478 6.77256C18.0954 6.7885 18.1669 6.82018 18.2464 6.85196C18.5271 6.9755 18.8201 7.06874 19.1205 7.13012C19.4318 7.19324 19.7487 7.22518 20.0663 7.22546C20.5669 7.22546 20.9564 7.13809 21.2265 6.96325C21.4967 6.7884 21.6398 6.53415 21.6398 6.20828C21.6398 5.98581 21.5683 5.803 21.4252 5.65196C21.2821 5.50093 21.012 5.36593 20.6226 5.23871L19.4702 4.88115C18.8901 4.69834 18.461 4.42815 18.1987 4.0705C17.9365 3.72081 17.8014 3.33146 17.8014 2.91821C17.8014 2.58446 17.8729 2.2904 18.016 2.03603C18.159 1.78178 18.3497 1.55931 18.5881 1.38446C18.8265 1.20165 19.0967 1.06656 19.4146 0.971214C19.7325 0.875871 20.0662 0.836121 20.4159 0.836121C20.5907 0.836121 20.7735 0.844089 20.9484 0.867902C21.1312 0.891714 21.2981 0.923496 21.465 0.955277C21.6239 0.995027 21.7749 1.03478 21.9179 1.0825C22.061 1.13012 22.1722 1.17778 22.2517 1.22546C22.363 1.28912 22.4424 1.35268 22.4901 1.42421C22.5378 1.48778 22.5616 1.57518 22.5616 1.68643V2.05993C22.5616 2.22681 22.4981 2.31428 22.3788 2.31428C22.3153 2.31428 22.212 2.2824 22.077 2.21884C21.6238 2.01221 21.1152 1.9089 20.5511 1.9089C20.0981 1.9089 19.7404 1.98043 19.494 2.13146C19.2478 2.2824 19.1205 2.51293 19.1205 2.83871C19.1205 3.06128 19.2 3.25196 19.3589 3.403C19.5179 3.55403 19.812 3.70496 20.2332 3.84006L21.3616 4.19771C21.9338 4.38053 22.347 4.63478 22.5934 4.96056C22.8398 5.28634 22.959 5.65993 22.959 6.07318C22.959 6.4149 22.8874 6.72484 22.7523 6.99503C22.6094 7.26521 22.4186 7.50362 22.1722 7.6944C21.9258 7.89306 21.6318 8.03612 21.2901 8.13943C20.9324 8.25071 20.559 8.30631 20.1537 8.30631Z" fill="black"/>
<path d="M21.6556 12.1685C19.0411 14.0997 15.2423 15.1248 11.9762 15.1248C7.39864 15.1248 3.2742 13.4321 0.158979 10.6188C-0.0873958 10.3964 0.135073 10.0944 0.429073 10.2691C3.79864 12.2242 7.95495 13.4083 12.2543 13.4083C15.1549 13.4083 18.3417 12.8043 21.2742 11.5646C21.7113 11.3658 22.0848 11.8507 21.6556 12.1685ZM22.7444 10.9288C22.4106 10.4997 20.5351 10.7221 19.6848 10.8255C19.4304 10.8573 19.3907 10.6348 19.6212 10.4679C21.1152 9.41883 23.5709 9.72089 23.8569 10.0705C24.143 10.4281 23.7774 12.8837 22.3788 14.0599C22.1643 14.2427 21.9576 14.1474 22.053 13.909C22.3708 13.1221 23.0781 11.35 22.7444 10.9288Z" fill="#FF9900"/>
</g>
<defs>
<clipPath id="clip0_33_969">
<rect width="24" height="14.3437" fill="white" transform="translate(0 0.828125)"/>
</clipPath>
</defs>
</svg>
