<svg width="25" height="28" viewBox="0 0 25 28" fill="none" xmlns="http://www.w3.org/2000/svg">
<path d="M15.9929 27.5235H16.3218L21.69 24.839L21.7794 24.7127V3.28563L21.69 3.15869L16.3218 0.476501H15.9889L15.9929 27.5235Z" fill="#5294CF"/>
<path d="M9.00691 27.5235H8.67344L3.30981 24.839L3.20097 24.6518L3.14575 3.39475L3.30981 3.15869L8.67344 0.476501H9.01103L9.00691 27.5235Z" fill="#1F5B98"/>
<path d="M8.68298 0.476501H16.3167V27.5235H8.68298V0.476501Z" fill="#2D72B8"/>
<path d="M24.5 13.3923L24.3186 13.3521L21.7285 13.1106L21.69 13.1298L16.317 12.9149H8.68297L3.30988 13.1298V9.0325L3.30425 9.0355L3.30988 9.0235L8.68297 7.7785H16.317L21.69 9.0235L23.6652 10.0734V9.39841L24.5 9.3071L24.4136 9.13853L21.7706 7.24863L21.69 7.27479L16.317 5.60988H8.68297L3.30988 7.27479V3.15869L0.5 6.45054V9.32547L0.52175 9.30972L1.33475 9.39841V10.0873L0.5 10.534V13.3946L0.52175 13.3923L1.33475 13.4043V14.605L0.633313 14.6155L0.5 14.6028V17.4645L1.33475 17.9133V18.6102L0.534969 18.6985L0.5 18.6723V21.5467L3.30988 24.839V20.7233L8.68297 22.3882H16.317L21.7059 20.7184L21.7775 20.7498L24.3857 18.8878L24.5 18.7023L23.6652 18.6102V17.9273L23.5558 17.8836L21.7706 18.846L21.7059 18.981L16.317 20.2188V20.2203H8.68297V20.2188L3.30988 18.9757V14.8635L8.68297 15.0776V15.0828H16.317L21.69 14.8635L21.8124 14.9197L24.3229 14.7035L24.5 14.617L23.6652 14.605V13.4043L24.5 13.3923Z" fill="#1A476F"/>
<path d="M21.6899 20.7233V24.839L24.4999 21.5467V18.691L21.7062 20.7184L21.6899 20.7233Z" fill="#2D72B8"/>
<path d="M21.6899 18.9848L21.7062 18.981L24.4999 17.4784V14.605L21.6899 14.8635V18.9848Z" fill="#2D72B8"/>
<path d="M21.7062 9.02725L21.6899 9.0235V13.1297L24.4999 13.3923V10.5204L21.7062 9.02725Z" fill="#2D72B8"/>
<path d="M21.7063 7.29091L24.5 9.3071V6.45128L21.6901 3.15869V7.27479L21.7063 7.28041V7.29091Z" fill="#2D72B8"/>
</svg>
