<svg width="24" height="24" viewBox="0 0 24 24" fill="none" xmlns="http://www.w3.org/2000/svg">
<g clip-path="url(#clip0_33_977)">
<path d="M8.40222 19.8H4.67716L8.797 11.1888L10.6637 15.0318L8.40222 19.8ZM9.06588 10.3659C9.04108 10.3152 9.00258 10.2725 8.95474 10.2426C8.9069 10.2127 8.85164 10.1968 8.79522 10.1967H8.79428C8.73768 10.1967 8.68224 10.2127 8.63436 10.2429C8.58649 10.2731 8.54813 10.3163 8.52372 10.3673L3.92931 19.9708C3.90751 20.0166 3.89766 20.0671 3.90068 20.1177C3.90369 20.1684 3.91947 20.2174 3.94655 20.2602C3.97363 20.3031 4.01112 20.3384 4.05553 20.3629C4.09994 20.3874 4.14983 20.4002 4.20053 20.4002L8.59253 20.4001C8.64943 20.4001 8.70518 20.384 8.7533 20.3536C8.80142 20.3233 8.83994 20.2799 8.86441 20.2285L11.2691 15.1585C11.2883 15.118 11.2982 15.0737 11.2979 15.0289C11.2977 14.984 11.2873 14.9398 11.2676 14.8996L9.06588 10.3659ZM19.4986 19.8H15.7976L9.86003 7.37098C9.83551 7.31975 9.79699 7.27651 9.74893 7.24625C9.70087 7.21599 9.64523 7.19995 9.58844 7.19998H7.16687L7.16969 4.19998H11.9159L17.8261 16.6287C17.8505 16.68 17.889 16.7233 17.9371 16.7536C17.9852 16.7839 18.0408 16.8 18.0977 16.8H19.4986V19.8ZM19.7993 16.2H18.288L12.3778 3.77126C12.3533 3.71994 12.3147 3.67661 12.2666 3.64629C12.2185 3.61598 12.1628 3.59992 12.1059 3.59998H6.86931C6.78971 3.59993 6.71334 3.63145 6.65696 3.68764C6.60058 3.74383 6.56879 3.82009 6.56856 3.89969L6.56528 7.49969C6.56528 7.57948 6.5965 7.65569 6.65341 7.71204C6.70966 7.76848 6.78597 7.79998 6.86594 7.79998H9.39878L15.3366 20.229C15.361 20.2802 15.3995 20.3235 15.4475 20.3537C15.4955 20.384 15.5511 20.4 15.6078 20.4H19.7993C19.8388 20.4 19.8778 20.3923 19.9143 20.3773C19.9507 20.3622 19.9839 20.3401 20.0118 20.3123C20.0397 20.2844 20.0619 20.2513 20.077 20.2149C20.0921 20.1785 20.0999 20.1394 20.1 20.1V16.5C20.1 16.3344 19.9655 16.2 19.7993 16.2Z" fill="#FF9900"/>
</g>
<defs>
<clipPath id="clip0_33_977">
<rect width="24" height="24" fill="white"/>
</clipPath>
</defs>
</svg>
