<svg width="25" height="28" viewBox="0 0 25 28" fill="none" xmlns="http://www.w3.org/2000/svg">
<path d="M22.6646 4.52362L24.6667 5.48952V22.4578L22.6646 23.4272L19.4965 14L22.6646 4.52362Z" fill="#5294CF"/>
<path d="M2.66516 4.52362L0.666626 5.48952V22.4578L2.66516 23.4272L7.66677 14L2.66516 4.52362Z" fill="#205B99"/>
<path d="M12.6648 20.9861L22.6645 23.4202V4.52362L12.6648 6.95769V20.9861Z" fill="#205B99"/>
<path d="M12.6649 20.9861L2.66516 23.4202V4.52362L12.6649 6.95769V20.9861Z" fill="#5294CF"/>
<path d="M15.0638 27.1995L18.8888 25.2923V2.70775L15.0638 0.800537L11.267 13.3537L15.0638 27.1995Z" fill="#5294CF"/>
<path d="M10.2659 27.1995L6.44446 25.2923V2.70775L10.2659 0.800537L13.6659 14L10.2659 27.1995Z" fill="#205B99"/>
<path d="M10.2659 0.800537H15.0673V27.1995H10.2659V0.800537Z" fill="#2E73B8"/>
</svg>
