<svg width="24" height="24" viewBox="0 0 24 24" fill="none" xmlns="http://www.w3.org/2000/svg">
<path d="M11.9619 7.25643C9.68525 7.30762 7.36813 8.00831 4.74707 9.45993C4.27119 10.0099 4.02557 10.6059 4.07769 11.2112C4.25394 13.2681 7.77613 14.6452 11.9444 14.2877C16.1135 13.9299 19.3498 11.9728 19.1733 9.9165C19.1401 9.53062 18.9892 9.16837 18.7383 8.83743C16.3533 7.76868 14.1753 7.20637 11.9619 7.25643Z" fill="#BAE6FA"/>
<path opacity="0.35" d="M12.2567 7.25325C10.4047 7.24988 8.53478 7.67176 6.50247 8.57738C6.41715 8.90363 6.37122 9.24301 6.37122 9.59269C6.37122 12.0321 8.57397 14.01 11.2912 14.01C14.0081 14.01 16.211 12.0323 16.211 9.59269C16.211 8.93532 16.0494 8.31207 15.7623 7.75144C14.5773 7.42857 13.4205 7.2555 12.2567 7.25325Z" fill="black"/>
<path d="M11.2913 7.08054C10.4106 7.02673 8.89316 7.4861 7.6281 7.94435C7.43034 8.40957 7.32868 8.90997 7.32923 9.41548C7.32923 11.553 9.26704 13.2859 11.317 13.2859C13.3532 13.2859 15.1551 11.55 15.3047 9.41585C15.3535 8.72042 15.114 8.06585 14.7822 7.50073C13.4702 7.2701 12.0784 7.12873 11.2911 7.08073" fill="black"/>
<path d="M9.03187 9.13501C9.13987 8.89576 9.30338 8.77876 9.46181 8.57832C9.44438 8.53089 9.40556 8.37545 9.40556 8.32145C9.40567 8.25046 9.42313 8.18058 9.45642 8.11789C9.48972 8.0552 9.53784 8.00159 9.59659 7.96176C9.65534 7.92192 9.72294 7.89705 9.79351 7.88931C9.86407 7.88158 9.93545 7.89122 10.0014 7.91739C10.3698 7.63544 10.7956 7.43776 11.2487 7.33831C11.7018 7.23885 12.1712 7.24003 12.6238 7.34176C12.7111 7.36176 12.7965 7.38495 12.8801 7.41132C11.9379 7.28064 10.8761 7.61439 10.1539 8.19732C10.1758 8.24926 10.2369 8.39795 10.2369 8.45814C10.2369 8.69851 10.0815 8.75682 9.84131 8.75682C9.78637 8.75682 9.73444 8.74632 9.68606 8.72814C9.52294 8.94714 9.32288 9.36451 9.225 9.62551C9.62438 9.98289 9.9855 10.1121 10.4556 10.2881C10.4546 10.2656 10.4717 10.245 10.4717 10.2221C10.4717 9.49726 11.1097 8.90832 11.8348 8.90832C12.1445 8.90833 12.4442 9.01799 12.6807 9.21788C12.9173 9.41777 13.0754 9.69497 13.1271 10.0003C13.4514 9.79407 13.7646 9.63601 14.0034 9.33039C13.9479 9.26251 13.8876 9.06976 13.8876 8.97507C13.8876 8.7572 14.0646 8.58039 14.283 8.58039C14.3138 8.58039 14.3434 8.5847 14.3724 8.59164C14.4941 8.34151 14.5851 8.0776 14.6434 7.80564C13.5099 6.96676 11.3171 7.08132 11.3171 7.08132C11.3171 7.08132 9.57188 6.9902 8.39062 7.56582C8.46937 8.13545 8.69662 8.67657 9.03187 9.13501Z" fill="#353333"/>
<path d="M14.4491 8.80816C14.5296 8.88016 14.5732 8.94373 14.6074 9.00541C14.7137 9.19591 14.5009 9.37048 14.283 9.37048C14.2612 9.37019 14.2394 9.36799 14.2179 9.36391C13.9721 9.74773 13.5418 10.2403 13.1593 10.4882C13.7458 10.5844 14.2987 10.8189 14.7388 11.1819C15.0591 10.6076 15.3051 9.77885 15.3051 9.07498C15.3051 8.53873 15.0681 8.14591 14.7112 7.85773C14.6923 8.14479 14.5387 8.54641 14.4491 8.80816ZM9.68962 12.444C9.8848 11.9045 10.3656 11.4864 10.8202 11.1187C10.7535 11.0276 10.6539 10.8022 10.6125 10.6954C10.0646 10.5284 9.572 10.2167 9.18655 9.7931C9.18405 9.80535 9.18105 9.81748 9.17755 9.82948C9.10781 10.1434 9.09133 10.4667 9.1288 10.7861C9.25985 10.8108 9.37816 10.8804 9.46327 10.9831C9.54839 11.0857 9.59496 11.2149 9.59493 11.3482C9.59493 11.5142 9.44924 11.7544 9.33655 11.8592C9.45937 12.1241 9.5428 12.252 9.68962 12.4442" fill="#353333"/>
<path d="M9.65529 12.8972C9.42204 12.6652 9.26098 12.2031 9.10967 11.9128C9.08097 11.9176 9.05194 11.9201 9.02285 11.9203C8.70673 11.9203 8.3756 11.6548 8.4506 11.3479C8.49223 11.178 8.60923 11.067 8.80029 10.9744C8.7566 10.6224 8.74479 10.1166 8.82654 9.75094C8.84998 9.6465 8.89967 9.59719 8.93267 9.49781C8.58392 8.98725 8.35835 8.31731 8.35835 7.653C8.35835 7.62862 8.35985 7.60481 8.36023 7.58081C7.77092 7.87631 7.32898 8.34206 7.32898 9.07462C7.32898 10.6961 8.26273 12.2869 9.6521 12.9101L9.65529 12.8972ZM13.0719 10.6556C12.9819 10.912 12.8145 11.134 12.5929 11.2912C12.3712 11.4484 12.1063 11.5329 11.8346 11.5331C11.5407 11.5333 11.2554 11.4342 11.025 11.2519C10.5649 11.61 10.1475 12.2394 9.9356 12.7854C10.0305 12.8876 10.0969 12.9722 10.2037 13.0629C10.5255 13.1469 10.9687 13.0629 11.3169 13.0629C12.7181 13.0629 13.9588 12.4395 14.67 11.3467C14.1969 11.0192 13.6391 10.7076 13.0719 10.6556Z" fill="#353333"/>
<path d="M8.99586 9.3244C9.10249 9.08866 9.23742 8.86678 9.39768 8.66365C9.37311 8.59781 9.36484 8.527 9.37358 8.45726C9.38231 8.38753 9.40779 8.32095 9.44784 8.2632C9.48789 8.20544 9.54132 8.15824 9.60356 8.12562C9.66581 8.09299 9.73502 8.07591 9.8053 8.07584C9.86174 8.07584 9.91593 8.08709 9.96561 8.10678C10.3697 7.79785 10.8422 7.59062 11.3432 7.50258C11.8442 7.41454 12.3591 7.44826 12.8443 7.6009C11.9019 7.4704 10.9286 7.75896 10.2062 8.3419C10.2392 8.42046 10.2484 8.50698 10.2327 8.59074C10.2171 8.67449 10.1771 8.75181 10.1179 8.81309C10.0587 8.87438 9.98282 8.91694 9.89966 8.9355C9.81649 8.95407 9.7297 8.94782 9.65005 8.91753C9.48545 9.13863 9.35271 9.38175 9.25574 9.63978C9.59886 10.0093 10.0196 10.3017 10.4899 10.4775C10.4887 10.455 10.4867 10.4331 10.4867 10.41C10.4866 10.2377 10.5205 10.0671 10.5864 9.90785C10.6523 9.74864 10.749 9.60397 10.8708 9.4821C10.9926 9.36024 11.1373 9.26357 11.2965 9.19761C11.4557 9.13166 11.6263 9.09771 11.7986 9.09771C12.4485 9.09771 12.9864 9.57021 13.0914 10.1897C13.4172 9.9812 13.7049 9.71855 13.9421 9.41309C13.8844 9.34319 13.8525 9.2555 13.8519 9.16484C13.8519 8.94659 14.0287 8.76978 14.247 8.76978C14.2777 8.76978 14.3074 8.77428 14.3364 8.78103C14.4581 8.53102 14.549 8.26724 14.6074 7.9954C13.4743 7.15596 11.2811 7.27053 11.2811 7.27053C11.2811 7.27053 9.53586 7.1794 8.35461 7.7554C8.43355 8.32484 8.66061 8.86653 8.99586 9.3244Z" fill="#1185B0"/>
<path d="M14.5102 8.87267C14.5907 8.94467 14.642 9.04836 14.642 9.1648C14.6419 9.26953 14.6002 9.36993 14.5262 9.44398C14.4521 9.51804 14.3517 9.55971 14.247 9.55986C14.2249 9.55986 14.2033 9.55667 14.1819 9.55311C13.9363 9.93756 13.611 10.2648 13.2281 10.5127C13.7932 10.6009 14.3241 10.8395 14.7652 11.2035C15.0963 10.6109 15.2698 9.94319 15.269 9.26436C15.269 8.72811 15.0322 8.33549 14.6752 8.04749C14.6565 8.33436 14.6002 8.61111 14.5102 8.87267ZM9.74998 12.5737C9.9472 12.0286 10.2894 11.5476 10.7396 11.1825C10.6726 11.0908 10.6178 10.9909 10.5765 10.8851C10.0288 10.7181 9.53626 10.4064 9.15091 9.98286L9.14191 10.0189C9.07198 10.3327 9.05531 10.6561 9.0926 10.9755C9.19673 10.9951 9.29337 11.0432 9.37173 11.1146C9.4501 11.1859 9.5071 11.2776 9.53638 11.3794C9.56567 11.4813 9.56608 11.5892 9.53758 11.6913C9.50908 11.7934 9.45279 11.8855 9.37498 11.9574C9.47797 12.1755 9.60367 12.382 9.74998 12.5737Z" fill="#1185B0"/>
<path d="M9.65365 12.8905C9.42115 12.6592 9.22572 12.3934 9.07428 12.1026C9.04539 12.1073 9.01617 12.1097 8.9869 12.1099C8.83511 12.1098 8.68956 12.0495 8.58225 11.9422C8.47494 11.8348 8.41465 11.6892 8.41465 11.5375C8.41465 11.3108 8.54684 11.1156 8.7379 11.023C8.6933 10.6618 8.71125 10.2956 8.79096 9.94052C8.81398 9.83712 8.84214 9.73493 8.87534 9.63433C8.51452 9.10647 8.32183 8.48179 8.32259 7.84239C8.32259 7.81821 8.3239 7.79421 8.32446 7.77002C7.73496 8.06552 7.29321 8.53146 7.29321 9.26439C7.29321 10.8857 8.26146 12.2803 9.65084 12.9038L9.65365 12.8905ZM13.036 10.8448C12.9459 11.1012 12.7785 11.3233 12.5569 11.4804C12.3353 11.6376 12.0703 11.7221 11.7987 11.7223C11.5049 11.7225 11.2196 11.6235 10.989 11.4415C10.5289 11.7998 10.1818 12.288 9.96978 12.8338C10.0652 12.9364 10.1667 13.0333 10.2735 13.1239C10.6025 13.2092 10.9411 13.2524 11.281 13.2523C12.6822 13.2523 13.9135 12.529 14.6248 11.4362C14.152 11.1086 13.6033 10.897 13.036 10.8448Z" fill="#1185B0"/>
<path d="M11.4281 9.2925L10.7413 8.06437L11.1129 9.36806L9.99877 8.55806L10.8716 9.65456L9.4884 9.14587L10.5798 9.95343L9.18033 9.99656L10.6113 10.3659L9.17883 10.6759L10.5928 10.7781L9.40027 11.5417L10.6284 11.0966L9.77621 12.1759L10.8526 11.3074L10.4653 12.7552L11.2963 11.577L11.1796 12.9688L11.6516 11.7069L12.0534 13.0329L12.1509 11.703L12.7471 12.8377L12.395 11.5402L13.4863 12.3855L12.7816 11.3074L13.979 11.7742L13.0635 10.8742L14.2912 10.9706L13.0818 10.5067L14.2944 10.2176L13.0775 10.1554L14.0675 9.39843L12.944 9.80118L13.7077 8.74275L12.6528 9.444L13.0216 8.205L12.2971 9.22631L12.2808 7.93556L11.8038 9.08512L11.4067 7.92206L11.4281 9.2925Z" fill="black"/>
<path opacity="0.35" d="M0.174316 12.8269C3.93407 9.06638 6.93744 7.90575 9.66275 7.37569C10.0237 7.30557 10.0918 6.5175 10.0918 6.5175C10.0918 6.5175 10.142 7.098 10.3946 7.17375C10.6468 7.24932 10.9751 6.26494 10.9751 6.26494C10.9751 6.26494 10.6723 7.14825 10.9751 7.19907C11.2779 7.24932 11.8329 6.34069 11.8329 6.34069C11.8329 6.34069 11.606 7.12313 11.7575 7.17357C11.909 7.224 12.6658 6.03788 12.6658 6.03788C12.6658 6.03788 12.2118 6.82032 12.6406 6.89607C13.07 6.972 13.6959 6.36207 13.6959 6.36207C13.6959 6.36207 13.2037 6.91988 13.4231 6.99713C14.3568 7.32525 15.1124 6.11157 15.1124 6.11157C15.1124 6.11157 14.9373 6.64369 14.4832 7.22419C15.4672 7.47675 16.1983 5.99419 16.1983 5.99419L15.467 7.47675C15.8458 7.6785 17.36 5.93738 17.36 5.93738C17.36 5.93738 16.5776 7.29994 16.1234 7.57725C16.3756 7.77975 17.2841 6.972 17.2841 6.972C17.2841 6.972 16.5524 7.88007 16.8301 7.93069C17.2338 8.25882 18.7226 6.23982 18.7226 6.23982C18.7226 6.23982 18.1424 7.42594 17.2841 8.35969C18.0013 8.71838 19.7827 6.41663 19.7827 6.41663C19.7827 6.41663 19.7321 7.14825 18.4453 8.30944C19.4039 8.18325 20.6409 6.36619 20.6409 6.36619C20.6409 6.36619 20.1864 7.72894 19.1011 8.68763C20.0428 8.59013 21.5489 6.26513 21.5489 6.26513C21.5489 6.26513 20.9684 7.88007 19.7827 8.814C21.0948 9.10463 22.9876 7.14825 22.9876 7.14825C22.9876 7.14825 22.2431 8.5365 21.2716 9.10444C22.3569 9.52069 23.8456 7.80469 23.8456 7.80469C23.8456 7.80469 22.3569 10.1012 19.9844 10.0003C19.2063 9.96713 16.8521 7.63875 11.8078 7.82982C5.14588 8.08238 3.73232 10.9088 0.174316 12.8269Z" fill="#353333"/>
<path d="M17.5142 5.65161C17.5142 5.65161 16.0001 7.39292 15.6214 7.19099L16.3524 5.70824C16.3524 5.70824 15.6212 7.1908 14.6376 6.93861C15.0913 6.35811 15.2666 5.8258 15.2666 5.8258C15.2666 5.8258 14.511 7.03967 13.5773 6.71136C13.3579 6.63449 13.8501 6.07667 13.8501 6.07667C13.8501 6.07667 13.2238 6.68624 12.795 6.61049C12.3662 6.53474 12.8201 5.75249 12.8201 5.75249C12.8201 5.75249 12.0632 6.9388 11.9113 6.88817C11.7602 6.83792 11.9872 6.0553 11.9872 6.0553C11.9872 6.0553 11.4323 6.96392 11.1294 6.91349C10.8266 6.86305 11.1294 5.97974 11.1294 5.97974C11.1294 5.97974 10.8013 6.96411 10.5489 6.88817C10.2964 6.81261 10.2461 6.23211 10.2461 6.23211C10.2461 6.23211 10.1779 7.02017 9.81713 7.08992C7.09163 7.62017 4.08844 8.78117 0.328125 12.5411C3.88631 10.623 5.2995 7.79661 11.9619 7.54442C17.0063 7.35317 19.3603 9.68136 20.1386 9.71455C22.5111 9.8158 24 7.51892 24 7.51892C24 7.51892 22.5111 9.23492 21.4256 8.81849C22.3974 8.25092 23.1418 6.86286 23.1418 6.86286C23.1418 6.86286 21.249 8.81849 19.9371 8.52824C21.1228 7.59467 21.7031 5.98011 21.7031 5.98011C21.7031 5.98011 20.1969 8.30455 19.2553 8.40261C20.3406 7.44355 20.7947 6.08042 20.7947 6.08042C20.7947 6.08042 19.5581 7.89767 18.5991 8.02405C19.8864 6.86305 19.9371 6.13124 19.9371 6.13124C19.9371 6.13124 18.1558 8.43299 17.4386 8.0743C18.2961 7.14055 18.8768 5.95442 18.8768 5.95442C18.8768 5.95442 17.388 7.97342 16.9841 7.6453C16.7064 7.59467 17.4386 6.68624 17.4386 6.68624C17.4386 6.68624 16.5302 7.4938 16.2776 7.29186C16.7318 7.01436 17.5142 5.65161 17.5142 5.65161ZM19.9359 9.89624C19.6821 9.87899 19.4582 9.97386 19.3438 10.2853C18.1701 12.5188 15.7097 13.7681 12.8325 14.1844C9.95531 14.6006 7.83562 13.9957 6.09431 13.505C3.80437 12.8593 1.9875 14.0079 0 13.011C0.45975 13.3747 0.984375 13.7302 2.49844 13.7347C3.01181 13.7366 4.656 13.6541 4.95881 13.919C5.26163 14.184 3.93694 15.4333 3.93694 15.4333C3.93694 15.4333 6.1785 13.538 6.39731 14.1842C6.53344 14.5864 5.75381 15.6607 5.75381 15.6607C5.75381 15.6607 6.53569 14.5999 7.11694 14.3735C7.51556 14.2179 7.85194 14.2367 8.13881 14.6387C8.32819 14.9034 7.23038 16.1906 7.23038 16.1906C7.23038 16.1906 8.70638 14.7523 8.9715 14.828C9.23662 14.9034 8.9715 16.1906 8.9715 16.1906C8.9715 16.1906 9.5145 14.8864 9.804 14.79C10.2015 14.6576 8.89556 17.8181 8.89556 17.8181C8.89556 17.8181 10.4906 14.894 10.7884 14.8282C11.2995 14.7146 11.6404 16.872 11.6404 16.872C11.6404 16.872 11.3914 14.9872 11.6591 14.8657C13.3541 14.0989 12.3787 18.1213 12.3787 18.1213C12.3787 18.1213 13.4873 15.3917 12.8063 14.7862C14.604 15.9784 14.385 18.1213 14.385 18.1213C14.385 18.1213 14.8575 17.1009 13.5315 14.592C14.2511 14.5545 15.3307 16.4557 15.3307 16.4557C15.3307 16.4557 14.1576 14.3737 14.9526 14.336C16.5321 14.261 16.6939 17.0992 16.6939 17.0992C16.6939 17.0992 17.1669 16.7017 15.8989 13.9192C16.7062 13.4021 18.6623 16.4936 18.6623 16.4936C18.6623 16.4936 16.8579 13.4779 17.1482 13.2759C17.4381 13.074 18.4986 14.2352 18.4986 14.2352C18.4986 14.2352 17.691 13.1248 17.9051 13.0112C18.1196 12.8974 20.265 15.2194 20.265 15.2194C20.265 15.2194 18.372 12.9478 18.7001 12.6701C18.8942 12.5057 19.4567 12.8098 19.8861 13.0856C19.2842 12.6551 18.4196 11.9814 18.7001 11.8357C19.2806 11.5344 20.9338 12.5565 20.9338 12.5565C20.9338 12.5565 19.9369 11.7364 20.1007 11.5346C20.2648 11.3325 22.2204 12.8216 22.2204 12.8216C22.2204 12.8216 20.4917 11.4585 20.4036 11.118C20.3151 10.7775 21.7667 11.2316 21.7667 11.2316C21.7667 11.2316 20.1639 10.4872 20.1388 10.2727C20.1133 10.0579 21.1986 10.5124 21.1986 10.5124C21.1986 10.5124 20.4947 9.93374 19.9359 9.89624ZM19.8861 13.0856C20.0608 13.2106 20.2375 13.3329 20.4161 13.4524C20.4161 13.4524 20.1817 13.2757 19.8861 13.0856Z" fill="#353333"/>
<path opacity="0.35" d="M0.075749 13.2381C2.06287 14.235 3.88012 13.0868 6.17025 13.732C7.91137 14.2226 10.0312 14.8281 12.9081 14.4113C15.7852 13.9954 18.2456 12.7459 19.4196 10.5124C19.7852 9.51545 21.2743 10.7393 21.2743 10.7393C21.2743 10.7393 20.1891 10.2855 20.2142 10.4998C20.2397 10.7143 21.8417 11.4585 21.8417 11.4585C21.8417 11.4585 20.391 11.0048 20.4793 11.3451C20.5678 11.686 22.296 13.0487 22.296 13.0487C22.296 13.0487 20.3407 11.5596 20.1765 11.7613C20.0122 11.9631 21.009 12.784 21.009 12.784C21.009 12.784 19.3564 11.7613 18.7759 12.063C18.3585 12.2796 20.4919 13.6798 20.4919 13.6798C20.4919 13.6798 19.1038 12.6199 18.7759 12.8976C18.4478 13.1751 20.3407 15.4463 20.3407 15.4463C20.3407 15.4463 18.195 13.1245 17.9809 13.2381C17.766 13.3515 18.5739 14.4619 18.5739 14.4619C18.5739 14.4619 17.5138 13.3013 17.2239 13.5032C16.9337 13.7051 18.7382 16.7205 18.7382 16.7205C18.7382 16.7205 16.7822 13.6292 15.9744 14.1465C17.2429 16.9286 16.7694 17.3265 16.7694 17.3265C16.7694 17.3265 16.6078 14.4878 15.0283 14.5628C14.2333 14.6006 15.4067 16.6828 15.4067 16.6828C15.4067 16.6828 14.3267 14.7812 13.6074 14.8191C14.9331 17.3278 14.4606 18.3478 14.4606 18.3478C14.4606 18.3478 14.6794 16.206 12.8812 15.0135C13.5626 15.6191 12.4537 18.3486 12.4537 18.3486C12.4537 18.3486 13.4295 14.3261 11.7345 15.093C11.4666 15.2141 11.7157 17.0993 11.7157 17.0993C11.7157 17.0993 11.3747 14.9411 10.8641 15.0553C10.566 15.1213 8.97131 18.0456 8.97131 18.0456C8.97131 18.0456 10.2772 14.8847 9.87975 15.0175C9.59025 15.114 9.04725 16.4181 9.04725 16.4181C9.04725 16.4181 9.31181 15.1311 9.04725 15.0553C8.78194 14.9794 7.30556 16.4181 7.30556 16.4181C7.30556 16.4181 8.40375 15.1311 8.214 14.866C7.92712 14.4643 7.59094 14.4454 7.19212 14.6008C6.61144 14.8271 5.82937 15.888 5.82937 15.888C5.82937 15.888 6.609 14.8136 6.47287 14.4115C6.25425 13.7653 4.0125 15.661 4.0125 15.661C4.0125 15.661 5.33719 14.4115 5.03437 14.1467C4.73156 13.8816 3.08719 13.9637 2.574 13.9624C1.05994 13.9575 0.535312 13.6022 0.0755615 13.2383" fill="#353333"/>
</svg>
