<svg width="32" height="33" viewBox="0 0 32 33" fill="none" xmlns="http://www.w3.org/2000/svg">
<path d="M9.94702 26.2867H7.38696C3.46696 26.0067 1.70703 22.9933 1.70703 20.3133C1.70703 17.6333 3.46698 14.6067 7.32031 14.34C7.86698 14.2867 8.34696 14.7133 8.38696 15.2733C8.42696 15.82 8.01369 16.3 7.45369 16.34C4.86703 16.5267 3.70703 18.4733 3.70703 20.3267C3.70703 22.18 4.86703 24.1267 7.45369 24.3133H9.94702C10.4937 24.3133 10.947 24.7667 10.947 25.3133C10.947 25.86 10.4937 26.2867 9.94702 26.2867Z" fill="black"/>
<path d="M22.2264 26.2867C22.1998 26.2867 22.1865 26.2867 22.1598 26.2867C21.6131 26.2867 21.1065 25.8333 21.1065 25.2867C21.1065 24.7134 21.5331 24.2867 22.0931 24.2867C23.7331 24.2867 25.1998 23.7134 26.3465 22.6867C28.4265 20.8734 28.5598 18.26 27.9998 16.42C27.4398 14.5934 25.8798 12.5 23.1598 12.1667C22.7198 12.1134 22.3731 11.78 22.2931 11.34C21.7598 8.14003 20.0398 5.92669 17.4265 5.12669C14.7331 4.28669 11.5864 5.11336 9.62643 7.16669C7.71977 9.15336 7.27978 11.94 8.38644 15.0067C8.57311 15.5267 8.30651 16.1 7.78651 16.2867C7.26651 16.4734 6.69314 16.2067 6.50648 15.6867C5.15981 11.9267 5.77316 8.32669 8.18649 5.79336C10.6532 3.20669 14.6131 2.18001 18.0132 3.22001C21.1331 4.18001 23.3331 6.75335 24.1331 10.3267C26.8531 10.94 29.0398 13.0067 29.9065 15.86C30.8531 18.9667 29.9998 22.1667 27.6665 24.1934C26.1865 25.5267 24.2531 26.2867 22.2264 26.2867Z" fill="black"/>
<path d="M15.9999 30.2067C13.3199 30.2067 10.8133 28.78 9.43994 26.4733C9.29327 26.2467 9.14661 25.98 9.02661 25.6867C8.57328 24.74 8.33325 23.66 8.33325 22.54C8.33325 18.3134 11.7733 14.8734 15.9999 14.8734C20.2266 14.8734 23.6666 18.3134 23.6666 22.54C23.6666 23.6734 23.4266 24.74 22.9466 25.7267C22.8399 25.98 22.6933 26.2467 22.5333 26.5C21.1866 28.78 18.6799 30.2067 15.9999 30.2067ZM15.9999 16.8734C12.8799 16.8734 10.3333 19.42 10.3333 22.54C10.3333 23.3667 10.5066 24.14 10.8399 24.8467C10.9466 25.0733 11.0399 25.26 11.1466 25.4334C12.1599 27.1534 14.0132 28.2067 15.9866 28.2067C17.9599 28.2067 19.8132 27.1534 20.8132 25.46C20.9332 25.26 21.04 25.0733 21.12 24.8867C21.48 24.1533 21.6532 23.38 21.6532 22.5533C21.6666 19.42 19.1199 16.8734 15.9999 16.8734Z" fill="black"/>
<path d="M15.2398 24.86C14.9865 24.86 14.7332 24.7666 14.5332 24.5666L13.2131 23.2466C12.8264 22.8599 12.8264 22.22 13.2131 21.8333C13.5998 21.4466 14.2398 21.4466 14.6264 21.8333L15.2665 22.4733L17.3998 20.5C17.8131 20.1266 18.4398 20.1533 18.8131 20.5533C19.1864 20.9533 19.1598 21.5933 18.7598 21.9666L15.9198 24.5933C15.7198 24.7666 15.4798 24.86 15.2398 24.86Z" fill="black"/>
</svg>
