<svg width="22" height="24" viewBox="0 0 22 24" fill="none" xmlns="http://www.w3.org/2000/svg">
<path d="M9.5 11C12 11 14.125 10.6083 15.875 9.825C17.625 9.04167 18.5 8.1 18.5 7C18.5 5.9 17.625 4.95833 15.875 4.175C14.125 3.39167 12 3 9.5 3C7 3 4.875 3.39167 3.125 4.175C1.375 4.95833 0.5 5.9 0.5 7C0.5 8.1 1.375 9.04167 3.125 9.825C4.875 10.6083 7 11 9.5 11ZM9.5 13.5C10.1833 13.5 11.0377 13.429 12.063 13.287C13.0883 13.145 14.0757 12.916 15.025 12.6C15.9743 12.284 16.791 11.8717 17.475 11.363C18.159 10.8543 18.5007 10.2333 18.5 9.5V12C18.5 12.7333 18.1583 13.3543 17.475 13.863C16.7917 14.3717 15.975 14.784 15.025 15.1C14.075 15.416 13.0877 15.6453 12.063 15.788C11.0383 15.9307 10.184 16.0013 9.5 16C8.816 15.9987 7.962 15.9277 6.938 15.787C5.914 15.6463 4.92633 15.4173 3.975 15.1C3.02367 14.7827 2.207 14.3703 1.525 13.863C0.843 13.3557 0.501333 12.7347 0.5 12V9.5C0.5 10.2333 0.841667 10.8543 1.525 11.363C2.20833 11.8717 3.025 12.284 3.975 12.6C4.925 12.916 5.91267 13.1453 6.938 13.288C7.96333 13.4307 8.81733 13.5013 9.5 13.5ZM9.5 18.5C10.1833 18.5 11.0377 18.429 12.063 18.287C13.0883 18.145 14.0757 17.916 15.025 17.6C15.9743 17.284 16.791 16.8717 17.475 16.363C18.159 15.8543 18.5007 15.2333 18.5 14.5V17C18.5 17.7333 18.1583 18.3543 17.475 18.863C16.7917 19.3717 15.975 19.784 15.025 20.1C14.075 20.416 13.0877 20.6453 12.063 20.788C11.0383 20.9307 10.184 21.0013 9.5 21C8.816 20.9987 7.962 20.9277 6.938 20.787C5.914 20.6463 4.92633 20.4173 3.975 20.1C3.02367 19.7827 2.207 19.3703 1.525 18.863C0.843 18.3557 0.501333 17.7347 0.5 17V14.5C0.5 15.2333 0.841667 15.8543 1.525 16.363C2.20833 16.8717 3.025 17.284 3.975 17.6C4.925 17.916 5.91267 18.1453 6.938 18.288C7.96333 18.4307 8.81733 18.5013 9.5 18.5Z" fill="#2D72B8"/>
</svg>
