<svg width="25" height="24" viewBox="0 0 25 24" fill="none" xmlns="http://www.w3.org/2000/svg">
<path d="M15.1858 11.5125L6.88403 10.05V20.8567C6.88393 20.9742 6.90702 21.0905 6.95197 21.199C6.99692 21.3076 7.06285 21.4061 7.14597 21.4891C7.22909 21.5721 7.32778 21.6379 7.43637 21.6826C7.54497 21.7274 7.66133 21.7503 7.77878 21.75H22.1038C22.2214 21.7505 22.3379 21.7277 22.4467 21.6831C22.5554 21.6384 22.6543 21.5727 22.7376 21.4896C22.8209 21.4066 22.8869 21.308 22.932 21.1994C22.977 21.0908 23.0001 20.9743 23 20.8567V16.875L15.1858 11.5125Z" fill="#185C37"/>
<path d="M15.1858 2.25H7.77878C7.66133 2.24971 7.54497 2.2726 7.43637 2.31736C7.32778 2.36213 7.22909 2.42789 7.14597 2.51088C7.06285 2.59386 6.99692 2.69244 6.95197 2.80096C6.90702 2.90947 6.88393 3.0258 6.88403 3.14325V7.125L15.1858 12L19.5815 13.4625L23 12V7.125L15.1858 2.25Z" fill="#21A366"/>
<path d="M6.88403 7.125H15.1858V12H6.88403V7.125Z" fill="#107C41"/>
<path opacity="0.1" d="M12.8255 6.15002H6.88403V18.3375H12.8255C13.0623 18.3363 13.289 18.2419 13.4567 18.0747C13.6243 17.9075 13.7193 17.681 13.721 17.4443V7.04327C13.7193 6.80653 13.6243 6.58002 13.4567 6.41282C13.289 6.24562 13.0623 6.1512 12.8255 6.15002Z" fill="black"/>
<path opacity="0.2" d="M12.3373 6.63751H6.88403V18.825H12.3373C12.574 18.8238 12.8008 18.7294 12.9684 18.5622C13.136 18.395 13.231 18.1685 13.2328 17.9318V7.53076C13.231 7.29402 13.136 7.0675 12.9684 6.90031C12.8008 6.73311 12.574 6.63869 12.3373 6.63751Z" fill="black"/>
<path opacity="0.2" d="M12.3373 6.63751H6.88403V17.85H12.3373C12.574 17.8488 12.8008 17.7544 12.9684 17.5872C13.136 17.42 13.231 17.1935 13.2328 16.9568V7.53076C13.231 7.29402 13.136 7.0675 12.9684 6.90031C12.8008 6.73311 12.574 6.63869 12.3373 6.63751Z" fill="black"/>
<path opacity="0.2" d="M11.849 6.63751H6.88403V17.85H11.849C12.0858 17.8488 12.3125 17.7544 12.4802 17.5872C12.6478 17.42 12.7428 17.1935 12.7445 16.9568V7.53076C12.7428 7.29402 12.6478 7.0675 12.4802 6.90031C12.3125 6.73311 12.0858 6.63869 11.849 6.63751Z" fill="black"/>
<path d="M2.8955 6.63752H11.849C12.0862 6.63732 12.3137 6.73129 12.4816 6.89879C12.6496 7.06628 12.7441 7.29359 12.7445 7.53077V16.4693C12.7441 16.7064 12.6496 16.9338 12.4816 17.1012C12.3137 17.2687 12.0862 17.3627 11.849 17.3625H2.8955C2.77798 17.3629 2.66154 17.3401 2.55286 17.2954C2.44418 17.2506 2.34541 17.1849 2.2622 17.1019C2.179 17.0189 2.113 16.9203 2.06801 16.8117C2.02301 16.7032 1.9999 16.5868 2 16.4693V7.53077C1.9999 7.41325 2.02301 7.29686 2.06801 7.1883C2.113 7.07973 2.179 6.98112 2.2622 6.89813C2.34541 6.81513 2.44418 6.74938 2.55286 6.70466C2.66154 6.65994 2.77798 6.63712 2.8955 6.63752Z" fill="url(#paint0_linear_76_658)"/>
<path d="M4.77502 14.9048L6.65827 11.9918L4.93327 9.09528H6.31852L7.25977 10.95C7.34677 11.1255 7.40977 11.256 7.43827 11.343H7.45102C7.51252 11.2025 7.57752 11.066 7.64602 10.9335L8.65252 9.09828H9.92752L8.15827 11.9783L9.97252 14.907H8.61577L7.52827 12.8738C7.47792 12.7863 7.43502 12.6947 7.40002 12.6H7.38202C7.35024 12.6923 7.30796 12.7806 7.25602 12.8633L6.13627 14.9048H4.77502Z" fill="black"/>
<path d="M22.1045 2.25001H15.1858V7.125H23V3.14325C23.0001 3.02573 22.977 2.90935 22.932 2.80079C22.887 2.69222 22.821 2.59361 22.7378 2.51061C22.6546 2.42762 22.5559 2.36187 22.4472 2.31715C22.3385 2.27243 22.2221 2.24961 22.1045 2.25001Z" fill="#33C481"/>
<path d="M15.1858 12H23V16.875H15.1858V12Z" fill="#107C41"/>
<defs>
<linearGradient id="paint0_linear_76_658" x1="3.8705" y1="5.93552" x2="10.874" y2="18.0645" gradientUnits="userSpaceOnUse">
<stop stop-color="#18884F"/>
<stop offset="0.5" stop-color="#117E43"/>
<stop offset="1" stop-color="#0B6631"/>
</linearGradient>
</defs>
</svg>
