<svg width="25" height="28" viewBox="0 0 25 28" fill="none" xmlns="http://www.w3.org/2000/svg">
<g clip-path="url(#clip0_33_1003)">
<path fill-rule="evenodd" clip-rule="evenodd" d="M14.8038 3.59028L20.3487 6.79184C20.5088 6.62244 20.6925 6.47706 20.8942 6.36022C22.0441 5.69909 23.5109 6.09163 24.1789 7.24166C24.84 8.39169 24.4475 9.85841 23.2974 10.5264C23.0973 10.6416 22.8816 10.7275 22.657 10.7814V17.1868C22.8792 17.2408 23.0925 17.3261 23.2906 17.4402C24.4475 18.1081 24.84 19.5749 24.172 20.725C23.5109 21.8749 22.0372 22.2674 20.8872 21.6064C20.6645 21.4785 20.4638 21.3156 20.2928 21.1239L14.7817 24.3057C14.8623 24.5501 14.9033 24.8059 14.9031 25.0632C14.9031 26.3854 13.8289 27.4666 12.4998 27.4666C11.1707 27.4666 10.0965 26.3923 10.0965 25.0632C10.0965 24.827 10.1304 24.5988 10.1937 24.3833L4.65028 21.1827C4.49197 21.3487 4.31084 21.4914 4.11234 21.6064C2.95547 22.2674 1.48866 21.8749 0.82753 20.725C0.166499 19.5749 0.55903 18.1081 1.70897 17.4402C1.90706 17.3261 2.12039 17.2407 2.34253 17.1868V10.7814C2.11794 10.7275 1.90227 10.6416 1.70212 10.5264C0.552093 9.86534 0.159561 8.39169 0.820686 7.24166C1.48181 6.09163 2.95537 5.69909 4.10541 6.36022C4.30596 6.47644 4.48877 6.62089 4.64822 6.78912L10.1947 3.58672C10.1294 3.3648 10.0963 3.13463 10.0965 2.90328C10.0965 1.57438 11.1707 0.5 12.4998 0.5C13.8289 0.5 14.9031 1.57428 14.9031 2.90328C14.9031 3.14216 14.8684 3.37269 14.8038 3.59028ZM14.2261 4.57672L19.7842 7.78578C19.6957 8.09516 19.6704 8.41918 19.7096 8.73857C19.7489 9.05796 19.8519 9.36619 20.0127 9.64494C20.3511 10.2335 20.9022 10.6237 21.5139 10.7758V17.1892C21.4827 17.1968 21.4517 17.2051 21.4208 17.2139L14.1615 4.64094C14.1834 4.61994 14.205 4.59847 14.2261 4.57672ZM10.8396 4.64244L3.58031 17.2153C3.54892 17.2062 3.51735 17.1977 3.48562 17.1899V10.7758C4.09734 10.6238 4.6485 10.2336 4.98684 9.64503C5.14794 9.36575 5.25112 9.05687 5.29021 8.73683C5.3293 8.41679 5.30351 8.09216 5.21437 7.78231L10.7709 4.57419C10.7934 4.59737 10.8162 4.62019 10.8396 4.64244ZM13.1713 5.21187L20.4289 17.7819C20.2626 17.9405 20.1201 18.1223 20.0058 18.3216C19.8917 18.5197 19.8064 18.733 19.7525 18.9552H5.24728C5.19327 18.733 5.10791 18.5197 4.99378 18.3216C4.87906 18.1236 4.73683 17.943 4.57134 17.785L11.8303 5.21244C12.0479 5.27512 12.2733 5.30681 12.4998 5.30656C12.7329 5.30656 12.9582 5.27356 13.1713 5.21187ZM14.2771 23.4442L19.7992 20.2559C19.7826 20.2039 19.7678 20.1513 19.7548 20.0983H5.24419C5.2365 20.1294 5.22819 20.1604 5.21925 20.1912L10.7683 23.3952C10.9924 23.1622 11.2613 22.9769 11.5589 22.8506C11.8565 22.7242 12.1765 22.6594 12.4998 22.66C12.8344 22.6594 13.1654 22.7288 13.4715 22.8639C13.7776 22.999 14.052 23.1966 14.2771 23.4442Z" fill="#E535AB"/>
</g>
<defs>
<clipPath id="clip0_33_1003">
<rect width="24" height="27" fill="white" transform="translate(0.5 0.5)"/>
</clipPath>
</defs>
</svg>
