<svg width="26" height="26" viewBox="0 0 26 26" fill="none" xmlns="http://www.w3.org/2000/svg">
<path d="M1.08331 16.25V9.75H2.70831V11.9167H4.87498V9.75H6.49998V16.25H4.87498V13.5417H2.70831V16.25H1.08331ZM9.20831 16.25V11.375H7.58331V9.75H12.4583V11.375H10.8333V16.25H9.20831ZM15.1666 16.25V11.375H13.5416V9.75H18.4166V11.375H16.7916V16.25H15.1666ZM19.5 16.25V9.75H23.2916C23.725 9.75 24.1041 9.9125 24.4291 10.2375C24.7541 10.5625 24.9166 10.9417 24.9166 11.375V12.4583C24.9166 12.8917 24.7541 13.2708 24.4291 13.5958C24.1041 13.9208 23.725 14.0833 23.2916 14.0833H21.125V16.25H19.5ZM21.125 12.4583H23.2916V11.375H21.125V12.4583Z" fill="black"/>
</svg>
