<svg width="24" height="20" viewBox="0 0 24 20" fill="none" xmlns="http://www.w3.org/2000/svg">
<path d="M4.35191 16.3582L5.22694 19.7267H4.56873L3.98796 17.2952L2.89611 19.7267H2.33857L1.23898 17.3184L0.64272 19.7344H0L0.867284 16.3582H1.44031L2.61734 18.9678L3.78663 16.3582H4.35191Z" fill="#007FA5"/>
<path d="M7.70493 17.6592V17.2642H8.33991V19.7267H7.70493V19.3318C7.53458 19.6183 7.19386 19.7809 6.76796 19.7809C5.89293 19.7809 5.39734 19.1614 5.39734 18.449C5.39734 17.7598 5.86196 17.21 6.67503 17.21C7.13965 17.2178 7.52683 17.3726 7.70493 17.6592ZM6.07878 18.4877C6.07878 18.9446 6.36529 19.3318 6.91509 19.3318C7.4494 19.3318 7.73591 18.9523 7.73591 18.5032C7.73591 18.0541 7.43391 17.6746 6.88411 17.6746C6.35755 17.6669 6.07878 18.0463 6.07878 18.4877Z" fill="#007FA5"/>
<path d="M9.78018 19.7344H9.1452V17.272H9.78018V17.8218C9.92731 17.4578 10.2758 17.2255 10.6707 17.2178C10.8023 17.2178 10.9417 17.241 11.0656 17.2797L10.9262 17.7443C10.8178 17.7134 10.7017 17.6979 10.5933 17.6979C10.1364 17.6979 9.78018 18.0463 9.78018 18.5497V19.7344Z" fill="#007FA5"/>
<path d="M11.3754 16.6216C11.3676 16.4435 11.507 16.2964 11.6929 16.2886H11.7161C11.9019 16.2809 12.0568 16.428 12.0646 16.6139V16.6293C12.0646 16.8074 11.9252 16.9546 11.7471 16.9546C11.7393 16.9546 11.7238 16.9546 11.7161 16.9546C11.538 16.9623 11.3831 16.8229 11.3754 16.6448C11.3754 16.6371 11.3754 16.6293 11.3754 16.6216ZM11.4063 17.2721H12.0413V19.0686C12.0413 19.177 12.0646 19.2622 12.1575 19.2622C12.1962 19.2622 12.2427 19.2544 12.2814 19.2467L12.382 19.7113C12.2504 19.7655 12.1033 19.7887 11.9639 19.7887C11.7006 19.7887 11.4141 19.7113 11.4141 19.1073L11.4063 17.2721Z" fill="#007FA5"/>
<path d="M14.8832 17.6592V17.2642H15.5181V19.7267H14.8832V19.3318C14.7128 19.6183 14.3721 19.7809 13.9462 19.7809C13.0712 19.7809 12.5756 19.1614 12.5756 18.449C12.5756 17.7598 13.0402 17.21 13.8533 17.21C14.3179 17.2178 14.6973 17.3726 14.8832 17.6592ZM13.257 18.4877C13.257 18.9446 13.5435 19.3318 14.0933 19.3318C14.6276 19.3318 14.9141 18.9523 14.9141 18.5032C14.9141 18.0541 14.6121 17.6746 14.0623 17.6746C13.5358 17.6669 13.257 18.0463 13.257 18.4877Z" fill="#007FA5"/>
<path d="M16.4939 16.3582H18.0194C19.2971 16.3582 19.9398 17.0629 19.9321 18.0463C19.9398 19.0685 19.2351 19.7344 18.1355 19.7344H16.4939V16.3582ZM16.9121 16.6602V19.4402H18.0736C19.088 19.4402 19.4829 18.751 19.4829 18.0386C19.4829 17.2332 18.9951 16.6602 18.0736 16.6602H16.9121Z" fill="#007FA5"/>
<path d="M22.5262 19.7344H20.5903V16.366H22.3326C22.9985 16.366 23.6335 16.4899 23.6258 17.241C23.6258 17.7676 23.3005 17.9147 22.9521 17.9689C23.4399 18.0076 23.7342 18.3251 23.7342 18.8284C23.7419 19.5796 23.0837 19.7344 22.5262 19.7344ZM22.379 17.8295C23.045 17.8295 23.1999 17.574 23.1999 17.2487C23.1999 16.7609 22.8979 16.6447 22.379 16.6447H20.9929V17.8295H22.379ZM22.3945 18.116H20.9852V19.4479H22.4565C22.8669 19.4479 23.3005 19.3085 23.3005 18.7975C23.3005 18.1935 22.8049 18.116 22.3945 18.116Z" fill="#007FA5"/>
<path d="M23.8891 0.282509C23.8272 0.228304 23.7497 0.205073 23.6723 0.212817C23.4555 0.212817 23.1689 0.359945 23.0141 0.445125L22.9521 0.476099C22.6966 0.599997 22.4178 0.66969 22.1313 0.685177C21.837 0.69292 21.5893 0.708408 21.264 0.747126C19.3281 0.94846 18.4608 2.42749 17.6323 3.8678C17.1831 4.6499 16.7108 5.46298 16.0681 6.08247C15.9364 6.21411 15.797 6.33027 15.6499 6.43868C14.984 6.93427 14.1554 7.28273 13.5049 7.53053C12.8777 7.77058 12.1963 7.97966 11.538 8.18873C10.934 8.37458 10.3688 8.56043 9.84219 8.75402C9.60214 8.8392 9.40855 8.90889 9.23045 8.97084C8.75035 9.12571 8.40963 9.24187 7.90629 9.59033C7.7127 9.72197 7.51137 9.8691 7.37973 9.97751C6.97706 10.295 6.6286 10.6667 6.3266 11.0848C6.07106 11.4643 5.7768 11.8205 5.44382 12.1457C5.33541 12.2464 5.14957 12.3006 4.8708 12.3006C4.53782 12.3006 4.1429 12.2309 3.717 12.1612C3.28336 12.0838 2.82648 12.0141 2.4393 12.0141C2.12182 12.0141 1.88176 12.0683 1.70366 12.1689C1.70366 12.1689 1.40166 12.3471 1.27002 12.5716L1.39392 12.6258C1.58751 12.7342 1.76561 12.8581 1.92823 13.013C2.09859 13.1679 2.28443 13.2995 2.48577 13.4079C2.54771 13.4312 2.60966 13.4699 2.65613 13.5163C2.60192 13.5938 2.52448 13.6944 2.44705 13.8029C1.99792 14.3914 1.74238 14.7553 1.88951 14.9566C1.9592 14.9954 2.04438 15.0109 2.12182 15.0109C3.09751 15.0109 3.61633 14.7553 4.28228 14.4378C4.47587 14.3449 4.66946 14.252 4.90177 14.1513C5.28895 13.981 5.70711 13.7177 6.14849 13.4312C6.72926 13.0517 7.33327 12.6645 7.92178 12.4787C8.40188 12.3316 8.90522 12.2619 9.40855 12.2696C10.028 12.2696 10.6785 12.3548 11.3057 12.4322C11.7781 12.4942 12.2582 12.5561 12.7383 12.5794C12.9242 12.5871 13.0945 12.5948 13.2649 12.5948C13.4894 12.5948 13.714 12.5871 13.9308 12.5639L13.985 12.5484C14.318 12.3471 14.4729 11.9057 14.6277 11.4798C14.7284 11.2087 14.8058 10.9609 14.9375 10.8061C14.9452 10.7983 14.953 10.7906 14.9607 10.7828C14.9762 10.7751 14.9917 10.7751 14.9994 10.7906V10.8061C14.922 12.471 14.2483 13.5318 13.5746 14.4688L13.1177 14.9566C13.1177 14.9566 13.7527 14.9566 14.1167 14.8173C15.4331 14.4223 16.4243 13.5551 17.1522 12.1767C17.3303 11.8205 17.4929 11.4565 17.6323 11.0848C17.6478 11.0539 17.7562 10.9997 17.7484 11.1545C17.7407 11.201 17.7407 11.2552 17.7407 11.3094C17.7407 11.3404 17.7407 11.3791 17.7329 11.4101C17.7174 11.6424 17.6632 12.1302 17.6632 12.1302L18.0737 11.9134C19.0571 11.2939 19.8082 10.0472 20.3812 8.09581C20.6213 7.28273 20.7917 6.48514 20.9465 5.77273C21.1324 4.92093 21.2872 4.19303 21.4731 3.90652C21.7596 3.46513 22.1933 3.16313 22.6192 2.86887C22.6734 2.83016 22.7353 2.79144 22.7895 2.75272C23.3238 2.38103 23.8504 1.94739 23.9665 1.14979V1.13431C24.044 0.507074 23.9743 0.352202 23.8891 0.282509Z" fill="#007FA5"/>
</svg>
