<svg width="24" height="24" viewBox="0 0 24 24" fill="none" xmlns="http://www.w3.org/2000/svg">
<path fill-rule="evenodd" clip-rule="evenodd" d="M16.5071 8.02722C16.808 8.89778 17.0248 9.78653 17.096 10.7077C17.1845 11.8505 17.144 12.9853 16.9031 14.1093C16.8965 14.1403 16.8827 14.1693 16.8723 14.1993C16.7968 14.1995 16.7197 14.1902 16.6458 14.2016C16.0217 14.2997 15.398 14.4013 14.7744 14.5023C14.1298 14.6068 13.4842 14.7071 12.8407 14.8187C12.6127 14.858 12.3305 14.811 12.2385 15.1263C12.2358 15.135 12.2096 15.1365 12.1944 15.1413L12.2255 13.2568L12.1938 8.70953L12.4942 8.65797C12.9855 8.57753 13.4767 8.49597 13.9683 8.41778C14.555 8.3246 15.1423 8.23403 15.7293 8.1431C15.9883 8.10278 16.2476 8.06585 16.5071 8.02722Z" fill="#439934"/>
<path fill-rule="evenodd" clip-rule="evenodd" d="M11.5742 20.6351C11.2573 20.3627 10.9294 20.1023 10.6256 19.8158C8.99121 18.2741 7.79571 16.4597 7.20696 14.2721C7.04477 13.6701 6.93658 13.0583 6.90189 12.4361C6.87752 12.0008 6.84227 11.5615 6.87302 11.1283C6.95496 9.97633 7.12146 8.83539 7.45933 7.72576L7.47789 7.69989C7.51071 7.74358 7.55796 7.7822 7.57464 7.83152C7.90446 8.80277 8.23183 9.77476 8.55752 10.7473C9.58089 13.8036 10.603 16.8606 11.628 19.9161C11.6481 19.9757 11.7 20.0246 11.7373 20.0785L11.5742 20.6351Z" fill="#45A538"/>
<path fill-rule="evenodd" clip-rule="evenodd" d="M16.5071 8.02725C16.2476 8.06588 15.9881 8.10281 15.7292 8.14275C15.1421 8.23369 14.5549 8.32425 13.9682 8.41744C13.4766 8.49563 12.9853 8.57719 12.4941 8.65763L12.1937 8.70919L12.1914 8.51325C12.1815 8.35219 12.1644 8.19131 12.1626 8.03025C12.1496 7.00313 12.1416 5.976 12.1288 4.94888C12.1209 4.30594 12.1091 3.66319 12.096 3.02044C12.0879 2.62106 12.0793 2.2215 12.0613 1.82269C12.0516 1.60838 12.0171 1.39519 12.003 1.18088C11.9951 1.05769 12.006 0.933564 12.0084 0.809814C12.1616 1.10663 12.3114 1.40569 12.4689 1.70025C12.7178 2.166 13.1141 2.50913 13.4709 2.88356C14.8815 4.36331 15.8829 6.08381 16.5071 8.02725Z" fill="#46A037"/>
<path fill-rule="evenodd" clip-rule="evenodd" d="M12.1943 15.1412C12.2095 15.1363 12.2359 15.1348 12.2383 15.1262C12.3304 14.8108 12.6126 14.8579 12.8406 14.8185C13.4841 14.7071 14.1296 14.6066 14.7743 14.5022C15.3979 14.4011 16.0215 14.2995 16.6457 14.2015C16.7196 14.1898 16.7966 14.1994 16.8722 14.1992C16.7556 14.6155 16.6637 15.0407 16.5158 15.4455C16.3478 15.9047 16.1445 16.3528 15.9287 16.7921C15.6056 17.4474 15.2057 18.0619 14.7375 18.6227C14.3777 19.0555 13.9766 19.4554 13.5746 19.8505C13.3525 20.0689 13.0905 20.2468 12.8468 20.4431L12.7836 20.4L12.556 20.2054L12.3205 19.6892C12.1596 19.087 12.0718 18.4677 12.0591 17.8446L12.0634 17.7394L12.0955 17.2845C12.1061 17.1293 12.1204 16.9742 12.127 16.8186C12.1511 16.2595 12.1721 15.7003 12.1943 15.1412Z" fill="#409433"/>
<path fill-rule="evenodd" clip-rule="evenodd" d="M12.1942 15.1412C12.1721 15.7003 12.1511 16.2594 12.1273 16.8187C12.1207 16.9744 12.1065 17.1294 12.0958 17.2847L11.9524 17.3389C11.6338 16.401 11.3151 15.4731 11.0032 14.5427C10.4876 13.0035 9.97818 11.4619 9.46331 9.9223C9.04745 8.67964 8.6287 7.43795 8.20706 6.19724C8.18737 6.13912 8.13074 6.09374 8.09137 6.04237L9.00937 4.35449C9.04087 4.40924 9.08249 4.46043 9.10237 4.5193C9.52753 5.77595 9.95053 7.03333 10.3714 8.29143C10.9181 9.9283 11.4615 11.5665 12.0079 13.2036C12.0296 13.269 12.0656 13.3294 12.0999 13.4027L12.2256 13.2564L12.1942 15.1412Z" fill="#4FAA41"/>
<path fill-rule="evenodd" clip-rule="evenodd" d="M8.09159 6.04254C8.13096 6.09392 8.1874 6.13929 8.20728 6.19742C8.62892 7.43813 9.04767 8.67982 9.46353 9.92248C9.9784 11.462 10.4878 13.0037 11.0035 14.5429C11.3151 15.473 11.6338 16.4012 11.9526 17.339L12.096 17.2849L12.064 17.7397L12.0349 17.8445C11.985 18.3425 11.943 18.8417 11.8823 19.3385C11.8517 19.5875 11.7868 19.832 11.7375 20.0786C11.7004 20.0248 11.6483 19.9759 11.6282 19.9162C10.6032 16.8605 9.58109 13.8037 8.55771 10.7475C8.23214 9.77485 7.90451 8.80291 7.57484 7.83167C7.55815 7.78235 7.51109 7.74373 7.47809 7.70004L8.09159 6.04254Z" fill="#4AA73C"/>
<path fill-rule="evenodd" clip-rule="evenodd" d="M12.2254 13.2566L12.0998 13.4029C12.0655 13.3296 12.0295 13.269 12.0077 13.2038C11.4615 11.5667 10.918 9.92852 10.3712 8.29164C9.95038 7.03354 9.52738 5.77616 9.10222 4.51952C9.08253 4.46064 9.0409 4.40927 9.00922 4.3547L10.1445 2.86127C10.1803 2.90908 10.2313 2.95164 10.2499 3.00545C10.5651 3.92814 10.8775 4.85195 11.188 5.77633C11.478 6.63958 11.7638 7.50414 12.0572 8.36627C12.0769 8.42402 12.1453 8.46489 12.1911 8.51364L12.1933 8.70958C12.2042 10.225 12.2149 11.7409 12.2254 13.2566Z" fill="#57AE47"/>
<path fill-rule="evenodd" clip-rule="evenodd" d="M12.1915 8.51326C12.1457 8.46451 12.0773 8.42363 12.0576 8.36588C11.7641 7.50376 11.4784 6.63919 11.1883 5.77595C10.8778 4.85157 10.5655 3.92795 10.2503 3.00507C10.2317 2.95126 10.1807 2.9087 10.1449 2.86088C10.5141 2.49938 10.8718 2.12495 11.2558 1.78013C11.5973 1.47376 11.8718 1.14526 11.8843 0.661133C11.8849 0.641071 11.8954 0.621008 11.9115 0.564758L12.0088 0.809633C12.0064 0.933571 11.9953 1.05751 12.0034 1.1807C12.0175 1.39501 12.052 1.6082 12.0617 1.82251C12.0797 2.22132 12.0883 2.62088 12.0964 3.02026C12.1093 3.66301 12.1211 4.30576 12.1292 4.9487C12.1418 5.97582 12.15 7.00294 12.163 8.03007C12.1645 8.19151 12.1813 8.35219 12.1915 8.51326Z" fill="#60B24F"/>
<path fill-rule="evenodd" clip-rule="evenodd" d="M11.7371 20.0785C11.7864 19.8319 11.8513 19.5872 11.8818 19.3384C11.9428 18.8417 11.9846 18.3424 12.0345 17.8444L12.0468 17.8425L12.0592 17.8446C12.072 18.4677 12.1597 19.0871 12.3206 19.6892C12.2876 19.7327 12.2409 19.7715 12.2235 19.8207C12.0872 20.205 11.9587 20.5924 11.8217 20.9768C11.8029 21.0293 11.7508 21.0702 11.714 21.1163L11.574 20.6352L11.7371 20.0785Z" fill="#A9AA88"/>
<path fill-rule="evenodd" clip-rule="evenodd" d="M11.7142 21.1165C11.751 21.0703 11.8033 21.0295 11.8219 20.977C11.9589 20.5926 12.0875 20.2054 12.2237 19.8208C12.2411 19.7717 12.2876 19.7329 12.3208 19.6894L12.5561 20.2058C12.5096 20.2718 12.4455 20.3312 12.4196 20.4047L11.9689 21.7283C11.9503 21.7813 11.8869 21.8188 11.8445 21.8636L11.7142 21.1165Z" fill="#B6B598"/>
<path fill-rule="evenodd" clip-rule="evenodd" d="M11.8445 21.8634C11.8871 21.8188 11.9503 21.7811 11.9689 21.7281L12.4196 20.4045C12.4453 20.3312 12.5096 20.2716 12.5561 20.2056L12.7839 20.4C12.6739 20.5088 12.6127 20.6344 12.6495 20.7932L12.5803 21.0197C12.5488 21.0585 12.5032 21.0923 12.4877 21.1367C12.3304 21.5873 12.1802 22.0403 12.0217 22.4908C12.0017 22.548 11.946 22.5928 11.9066 22.6431C11.8862 22.383 11.8654 22.1235 11.8445 21.8634Z" fill="#C2C1A7"/>
<path fill-rule="evenodd" clip-rule="evenodd" d="M11.9068 22.6431C11.946 22.5927 12.0017 22.5478 12.022 22.4908C12.1804 22.0405 12.3306 21.5875 12.4879 21.1367C12.5035 21.0925 12.5488 21.0585 12.5805 21.0197L12.4851 22.0594C12.4596 22.0888 12.4226 22.1145 12.4105 22.1488C12.3026 22.4515 12.201 22.7563 12.0928 23.059C12.0705 23.1214 12.0278 23.1765 11.9944 23.2348C11.9648 23.196 11.9117 23.1585 11.9093 23.118C11.8997 22.9603 11.9063 22.8015 11.9068 22.6431Z" fill="#CECDB7"/>
<path fill-rule="evenodd" clip-rule="evenodd" d="M11.9942 23.2348C12.0276 23.1763 12.0703 23.1212 12.0926 23.0589C12.201 22.7565 12.3025 22.4516 12.4103 22.1488C12.4225 22.1145 12.4596 22.089 12.4849 22.0594L12.4871 22.7419L12.2588 23.3276L11.9942 23.2348Z" fill="#DBDAC7"/>
<path fill-rule="evenodd" clip-rule="evenodd" d="M12.2587 23.3278L12.4871 22.7421L12.5342 23.4351L12.2587 23.3278Z" fill="#EBE9DC"/>
<path fill-rule="evenodd" clip-rule="evenodd" d="M12.6495 20.7934C12.6128 20.6346 12.6737 20.5088 12.7839 20.4002L12.8471 20.4433L12.6495 20.7934Z" fill="#CECDB7"/>
<path fill-rule="evenodd" clip-rule="evenodd" d="M12.0592 17.8447L12.0469 17.8427L12.0345 17.8446L12.0635 17.7397L12.0592 17.8447Z" fill="#4FAA41"/>
</svg>
