<svg width="24" height="24" viewBox="0 0 24 24" fill="none" xmlns="http://www.w3.org/2000/svg">
<path fill-rule="evenodd" clip-rule="evenodd" d="M10 2C10.7005 1.9997 11.3887 2.18336 11.996 2.53259C12.6032 2.88182 13.108 3.38439 13.46 3.99L13.558 4.172L14.196 3.804C14.957 3.3644 15.8416 3.18767 16.7132 3.30114C17.5847 3.4146 18.3946 3.81193 19.0177 4.43173C19.6408 5.05154 20.0424 5.8593 20.1605 6.7302C20.2786 7.6011 20.1066 8.48665 19.671 9.25L19.558 9.436L20.196 9.804C20.957 10.2434 21.5521 10.9211 21.8894 11.7325C22.2268 12.5439 22.2875 13.4438 22.0623 14.2932C21.8371 15.1426 21.3385 15.8942 20.6435 16.4318C19.9484 16.9695 19.0957 17.2634 18.217 17.268L18 17.264V18C18.0003 18.8798 17.7105 19.7351 17.1755 20.4335C16.6405 21.1319 15.8902 21.6345 15.0408 21.8634C14.1913 22.0923 13.2901 22.0348 12.4766 21.6997C11.6631 21.3647 10.9828 20.7708 10.541 20.01L10.441 19.828L9.804 20.196C9.04297 20.6356 8.15835 20.8123 7.28683 20.6989C6.41532 20.5854 5.60543 20.1881 4.98233 19.5683C4.35923 18.9485 3.9576 18.1407 3.83951 17.2698C3.72142 16.3989 3.89345 15.5134 4.329 14.75L4.442 14.564L3.804 14.196C3.04301 13.7566 2.44788 13.0789 2.11055 12.2675C1.77323 11.4561 1.71247 10.5562 1.93767 9.70681C2.16288 8.85743 2.6615 8.10585 3.35653 7.56817C4.05155 7.03049 4.90429 6.73663 5.783 6.732L6 6.736V6C6 4.93913 6.42143 3.92172 7.17157 3.17157C7.92172 2.42143 8.93913 2 10 2ZM14.702 12.787L14.634 16.847C14.6315 16.9976 14.5951 17.1457 14.5274 17.2802C14.4597 17.4148 14.3625 17.5323 14.243 17.624L14.134 17.696L12.178 18.826C12.3624 19.2296 12.6756 19.5605 13.0685 19.7668C13.4614 19.973 13.9117 20.0429 14.3486 19.9654C14.7855 19.8879 15.1843 19.6674 15.4823 19.3387C15.7803 19.0099 15.9607 18.5914 15.995 18.149L16 18V13.566L14.702 12.787ZM12.669 14.734L9.119 16.704L9.001 16.76C8.75969 16.8554 8.49075 16.8532 8.251 16.754L8.134 16.696L6.178 15.566L6.088 15.702C5.86608 16.0706 5.76896 16.501 5.81108 16.9293C5.85319 17.3575 6.03229 17.7607 6.32178 18.0791C6.61127 18.3974 6.99571 18.6139 7.41802 18.6964C7.84033 18.7789 8.27799 18.723 8.666 18.537L8.804 18.464L12.644 16.247L12.669 14.734ZM15.357 9.319L14.033 10.054L17.515 12.143L17.622 12.217C17.8254 12.3784 17.9581 12.6125 17.992 12.87L18 13V15.26L18.162 15.268C18.592 15.2757 19.013 15.1446 19.3626 14.8941C19.7122 14.6436 19.9717 14.2872 20.1027 13.8775C20.2337 13.4679 20.2292 13.027 20.0898 12.6202C19.9504 12.2133 19.6836 11.8622 19.329 11.619L19.196 11.536L15.357 9.319ZM6 8.741C5.55855 8.69808 5.11535 8.80305 4.74004 9.03941C4.36473 9.27577 4.07859 9.63012 3.92657 10.0468C3.77456 10.4635 3.76529 10.9188 3.90022 11.3413C4.03514 11.7639 4.30662 12.1296 4.672 12.381L4.804 12.464L8.644 14.681L9.967 13.946L6.486 11.858C6.35677 11.7804 6.24674 11.6747 6.16414 11.5486C6.08154 11.4226 6.02851 11.2794 6.009 11.13L6 11V8.741ZM12.014 11.175L11.292 11.575L11.278 12.401L11.986 12.826L12.708 12.425L12.722 11.599L12.014 11.175ZM10 4C9.49542 3.99984 9.00943 4.19041 8.63945 4.5335C8.26947 4.87659 8.04284 5.34684 8.005 5.85L8 6V10.434L9.298 11.213L9.366 7.153L9.376 7.023C9.41414 6.76603 9.55078 6.53399 9.757 6.376L9.866 6.304L11.823 5.174L11.755 5.039C11.5826 4.7243 11.3287 4.46179 11.0199 4.27899C10.7111 4.09618 10.3588 3.99982 10 4ZM17.928 6.268C17.6763 5.83196 17.2694 5.50687 16.7886 5.35765C16.3078 5.20843 15.7883 5.24605 15.334 5.463L15.196 5.536L11.356 7.753L11.331 9.266L14.881 7.296C15.0126 7.22287 15.159 7.18039 15.3093 7.17173C15.4596 7.16307 15.6099 7.18846 15.749 7.246L15.866 7.304L17.823 8.434C18.265 7.814 18.333 6.969 17.928 6.268Z" fill="#55CBA0"/>
</svg>
