<svg width="24" height="24" viewBox="0 0 24 24" fill="none" xmlns="http://www.w3.org/2000/svg">
<path d="M8.49706 18.325H15.8441C19.3361 18.24 22.0841 15.323 21.9981 11.851C21.9131 8.46499 19.1881 5.76099 15.8441 5.67599H8.49706C5.00506 5.59099 2.08706 8.33799 2.00206 11.83C1.98025 12.6594 2.12221 13.4849 2.41982 14.2593C2.71742 15.0338 3.16483 15.7419 3.73644 16.3433C4.30804 16.9446 4.99262 17.4273 5.751 17.7637C6.50937 18.1002 7.32665 18.2838 8.15606 18.304C8.26306 18.325 8.37006 18.325 8.49706 18.325ZM15.6721 16.089H8.64606C6.38906 16.025 4.62106 14.129 4.68606 11.873C4.77006 9.72199 6.49606 7.97599 8.64606 7.91199H15.6731C17.9311 7.84799 19.8261 9.61499 19.8901 11.872C19.9541 14.13 18.1861 16.025 15.9291 16.089H15.6721Z" fill="#D63E29"/>
</svg>
