<svg width="25" height="24" viewBox="0 0 25 24" fill="none" xmlns="http://www.w3.org/2000/svg">
<path d="M18.0891 17.271C18.2363 16.0461 18.1923 15.8663 19.1046 16.0648L19.3362 16.0851C20.0378 16.117 20.9556 15.9722 21.4949 15.7217C22.6557 15.183 23.3438 14.284 22.1995 14.52C19.5888 15.0587 19.4093 14.1747 19.4093 14.1747C22.1661 10.0843 23.3185 4.8919 22.3236 3.62084C19.6105 0.154151 14.9142 1.79346 14.8356 1.83584L14.8105 1.84053C14.2947 1.73346 13.7174 1.66953 13.0688 1.65903C11.8874 1.63953 10.991 1.96878 10.3109 2.4844C10.3109 2.4844 1.93283 -0.967287 2.32264 6.82521C2.40552 8.4829 4.69864 19.3686 7.43389 16.0806C8.43364 14.8783 9.39964 13.8617 9.39964 13.8617C9.87927 14.1803 10.4538 14.343 11.056 14.2845L11.1027 14.2448C11.0881 14.394 11.0945 14.5401 11.1213 14.713C10.4168 15.5003 10.6238 15.6385 9.21514 15.9283C7.78977 16.222 8.62714 16.7449 9.1737 16.8816C9.83652 17.0473 11.3697 17.2821 12.4058 15.832L12.3646 15.9973C12.641 16.2186 12.6224 17.5868 12.6614 18.5642C12.7006 19.5418 12.766 20.454 12.9653 20.992C13.1646 21.5297 13.3998 22.915 15.2511 22.5182C16.7984 22.1875 17.9813 21.7103 18.0891 17.271Z" fill="black"/>
<path d="M14.6484 23.4855C13.8296 23.4855 13.2963 23.1688 12.9725 22.863C12.4837 22.4018 12.2898 21.8076 12.174 21.4527L12.1239 21.3045C11.8907 20.6749 11.8115 19.7683 11.7647 18.601C11.7575 18.4257 11.7527 18.2451 11.7472 18.0537C11.7433 17.9136 11.7384 17.7379 11.7313 17.5542C11.4363 17.6948 11.1232 17.7938 10.8009 17.8482C10.2236 17.9468 9.60297 17.9149 8.95591 17.7531C8.49935 17.6389 8.02497 17.4023 7.7546 17.0368C6.96653 17.727 6.21485 17.6335 5.80535 17.4968C5.08291 17.2558 4.43641 16.5788 3.82872 15.4273C3.39578 14.607 2.9771 13.5383 2.5841 12.2505C1.89972 10.008 1.46491 7.64609 1.42628 6.87059C1.30478 4.4434 1.95822 2.70753 3.36803 1.71171C5.59197 0.140838 8.96153 1.06465 10.19 1.48409C11.0154 0.986651 11.9865 0.744589 13.0837 0.762026C13.673 0.771589 14.2342 0.823339 14.7555 0.916339C15.2992 0.745339 16.3732 0.499901 17.6027 0.515276C19.8678 0.542276 21.7449 1.42503 23.0306 3.06809C23.9482 4.24034 23.4945 6.70203 23.1425 8.06515C22.6472 9.98253 21.7792 12.0218 20.7131 13.797C21.0026 13.7991 21.422 13.7644 22.0183 13.6412C23.1947 13.3984 23.5387 14.0292 23.6321 14.3115C24.0062 15.4444 22.3802 16.3005 21.873 16.536C21.2231 16.8377 20.1635 17.0215 19.2958 16.9817L19.2579 16.9793L19.0299 16.9592L19.0074 17.1493L18.9857 17.3352C18.9273 19.585 18.606 21.0098 17.9447 21.9512C17.2515 22.9382 16.2881 23.2148 15.4395 23.3967C15.15 23.4585 14.8869 23.4855 14.6484 23.4855ZM12.9253 15.2972C13.4538 15.7202 13.5002 16.5162 13.5416 18.0036C13.5468 18.1892 13.5517 18.3649 13.5583 18.529C13.5782 19.0258 13.6248 20.1893 13.8071 20.6809C13.8328 20.7505 13.8558 20.821 13.8802 20.8958C14.0833 21.5175 14.1851 21.8293 15.0632 21.6417C15.8002 21.4836 16.1792 21.3418 16.4758 20.9196C16.9068 20.3057 17.148 19.0708 17.1922 17.2493L18.089 17.271L17.1984 17.1642L17.2247 16.9418C17.31 16.2087 17.3715 15.6792 17.8614 15.3289C18.2546 15.048 18.7025 15.0752 19.0593 15.1395C18.6673 14.8433 18.5589 14.4958 18.53 14.3533L18.4552 13.9849L18.6654 13.6731C19.8761 11.8768 20.8743 9.66921 21.4046 7.61609C21.9495 5.50653 21.7833 4.38621 21.6172 4.17434C19.418 1.36428 15.6045 2.52453 15.2062 2.65615L15.1389 2.69253L14.8014 2.75534L14.6285 2.71953C14.1519 2.62053 13.6224 2.56578 13.0548 2.55659C12.1631 2.54159 11.4437 2.75234 10.8538 3.1999L10.4445 3.51021L9.96953 3.31465C8.95478 2.89971 5.97428 2.06553 4.40153 3.17946C3.52853 3.79784 3.13085 5.00946 3.21935 6.78078C3.2486 7.36559 3.64591 9.5794 4.30141 11.7265C5.20722 14.6937 6.03035 15.6793 6.37403 15.7939C6.43403 15.8142 6.58966 15.6932 6.74453 15.5072C7.39029 14.7331 8.05896 13.9784 8.74966 13.2441L9.26903 12.6975L9.89697 13.1147C10.1501 13.2829 10.4293 13.3783 10.716 13.3963L12.2135 12.1191L11.9966 14.3331C11.9917 14.3828 11.9893 14.4505 12.0088 14.5761L12.074 14.9957L11.7909 15.3122L11.7583 15.349L12.581 15.7287L12.9253 15.2972Z" fill="black"/>
<path d="M22.1996 14.52C19.5886 15.0587 19.4092 14.1746 19.4092 14.1746C22.166 10.0841 23.3184 4.89152 22.3239 3.62083C19.6108 0.154331 14.9141 1.79364 14.8357 1.83621L14.8104 1.84071C14.2946 1.73364 13.7173 1.66989 13.0683 1.65939C11.8869 1.64008 10.9908 1.96914 10.3108 2.48477C10.3108 2.48477 1.93251 -0.966731 2.32214 6.82558C2.40502 8.48346 4.69814 19.3691 7.43339 16.0811C8.43314 14.8789 9.39895 13.8623 9.39895 13.8623C9.87877 14.1808 10.4531 14.3436 11.0551 14.2851L11.102 14.2453C11.0874 14.3946 11.0941 14.5406 11.1208 14.7135C10.4161 15.5008 10.6231 15.639 9.21445 15.9289C7.78908 16.2225 8.62645 16.7455 9.1732 16.8821C9.83583 17.0479 11.3692 17.2826 12.4051 15.8325L12.3637 15.9979C12.6399 16.2191 12.8338 17.4364 12.8013 18.5398C12.7687 19.6433 12.747 20.401 12.9646 20.9927C13.1821 21.5845 13.3989 22.9157 15.2506 22.519C16.7979 22.1875 17.5996 21.3281 17.7114 19.8949C17.7905 18.8758 17.9696 19.0266 17.981 18.1155L18.1248 17.6843C18.2906 16.303 18.1511 15.8575 19.1045 16.0646L19.3361 16.0849C20.0377 16.1168 20.9559 15.972 21.495 15.7215C22.6556 15.1832 23.3439 14.284 22.1996 14.52Z" fill="#336791"/>
<path d="M14.742 22.9326C13.1985 22.9326 12.7095 21.7102 12.5094 21.2104C12.2166 20.4778 12.1534 17.6349 12.2186 15.3036C12.2196 15.2642 12.2283 15.2255 12.2443 15.1896C12.2603 15.1537 12.2833 15.1212 12.3119 15.0942C12.3405 15.0672 12.3741 15.0461 12.4109 15.0322C12.4476 15.0182 12.4868 15.0117 12.5261 15.0129C12.5654 15.014 12.6041 15.0228 12.6399 15.0388C12.6758 15.0548 12.7081 15.0778 12.7351 15.1063C12.7621 15.1349 12.7832 15.1685 12.7972 15.2052C12.8112 15.2419 12.8179 15.281 12.8167 15.3202C12.7416 18.0092 12.8482 20.4459 13.065 20.9882C13.4032 21.8336 13.9162 22.5731 15.3666 22.2624C16.7434 21.9671 17.259 21.4451 17.4887 20.1137C17.6649 19.092 18.0135 16.1854 18.0564 15.6118C18.0593 15.5726 18.0699 15.5344 18.0876 15.4993C18.1052 15.4642 18.1297 15.4329 18.1595 15.4073C18.1892 15.3816 18.2238 15.3621 18.2611 15.3498C18.2985 15.3376 18.3379 15.3328 18.3771 15.3358C18.4561 15.3418 18.5296 15.3789 18.5814 15.439C18.6331 15.4991 18.6589 15.5773 18.6531 15.6564C18.6082 16.2536 18.2614 19.1546 18.0784 20.2155C17.8072 21.7881 17.1062 22.5013 15.492 22.8474C15.2177 22.9061 14.9685 22.9324 14.742 22.9326ZM6.37274 16.9624C6.23783 16.9619 6.10387 16.9397 5.97599 16.8967C4.97343 16.5622 4.01849 14.9295 3.13762 12.0433C2.46712 9.84636 2.04224 7.55324 2.00493 6.80793C1.89449 4.59843 2.46337 3.03524 3.69618 2.16205C6.13499 0.43405 10.2377 2.07955 10.4111 2.15043C10.4846 2.18044 10.5431 2.2384 10.5739 2.31158C10.6046 2.38475 10.605 2.46714 10.575 2.54061C10.545 2.61409 10.487 2.67263 10.4138 2.70336C10.3407 2.73409 10.2583 2.7345 10.1848 2.70449C10.1452 2.68836 6.21112 1.11224 4.0408 2.65105C2.98668 3.39843 2.50274 4.78705 2.6023 6.77811C2.63362 7.40605 3.03055 9.64405 3.70968 11.8686C4.49605 14.4452 5.39099 16.071 6.16518 16.3292C6.28668 16.3697 6.65643 16.4929 7.18499 15.8572C7.80139 15.117 8.44089 14.3962 9.10255 13.6961C9.15792 13.6409 9.2327 13.6095 9.31089 13.6088C9.38909 13.608 9.46448 13.6378 9.52094 13.6919C9.57739 13.746 9.61043 13.8201 9.61297 13.8982C9.61552 13.9764 9.58737 14.0525 9.53455 14.1101C9.52555 14.1195 8.62574 15.0602 7.64512 16.2399C7.18068 16.7985 6.73555 16.9624 6.37274 16.9624ZM19.3907 14.4414C19.3364 14.4414 19.2832 14.4265 19.2368 14.3986C19.1903 14.3706 19.1523 14.3305 19.1268 14.2826C19.1014 14.2347 19.0894 14.1808 19.0922 14.1267C19.095 14.0725 19.1125 14.0201 19.1428 13.9751C21.9296 9.8398 22.9078 4.84311 22.0701 3.77249C21.0156 2.42511 19.5266 1.72143 17.6443 1.68074C16.2506 1.65074 15.1429 2.00661 14.9617 2.06868L14.9162 2.08724C14.7341 2.14443 14.5944 2.04468 14.5417 1.92805C14.5117 1.86123 14.5071 1.78573 14.5289 1.71578C14.5507 1.64584 14.5974 1.58629 14.6601 1.54836C14.6687 1.5433 14.6961 1.53168 14.7405 1.51536L14.7366 1.51649L14.7405 1.51518C15.0482 1.40249 16.1728 1.06518 17.5657 1.08111C19.6485 1.10324 21.369 1.9063 22.5409 3.40386C23.0953 4.11243 23.0966 5.7448 22.5444 7.88268C21.9816 10.0624 20.9224 12.4048 19.6387 14.3096C19.5814 14.3953 19.4869 14.4414 19.3907 14.4414ZM19.5332 16.3558C19.0573 16.3558 18.6307 16.2887 18.3754 16.1357C18.1129 15.9784 18.0628 15.7646 18.0562 15.6512C17.9846 14.3931 18.6787 14.1741 19.0327 14.0741C18.9834 13.9995 18.9133 13.9117 18.8407 13.8212C18.6343 13.5632 18.3516 13.2099 18.1337 12.6816C18.0996 12.5991 17.9927 12.4072 17.8689 12.1851C17.1979 10.9817 15.8016 8.47761 16.6986 7.1953C17.1137 6.60186 17.9404 6.36824 19.1584 6.49855C18.8001 5.40693 17.0938 1.99218 13.0451 1.9258C11.8275 1.90555 10.8289 2.27999 10.0785 3.03768C8.39849 4.73436 8.45924 7.8043 8.46018 7.83505C8.46121 7.87432 8.4545 7.91342 8.44043 7.9501C8.42635 7.98678 8.40519 8.02032 8.37815 8.04883C8.35111 8.07733 8.31873 8.10022 8.28284 8.11621C8.24695 8.13219 8.20826 8.14095 8.16899 8.14199C8.12972 8.14302 8.09062 8.13631 8.05395 8.12224C8.01727 8.10816 7.98372 8.087 7.95522 8.05996C7.92671 8.03292 7.90382 8.00054 7.88783 7.96465C7.87185 7.92876 7.86309 7.89007 7.86205 7.8508C7.8583 7.71449 7.79568 4.49286 9.65343 2.61655C10.5229 1.73849 11.6674 1.30499 13.0551 1.32768C15.6452 1.37024 17.3124 2.68705 18.2548 3.78411C19.2821 4.9798 19.7857 6.29868 19.8272 6.73893C19.8581 7.0663 19.6232 7.13174 19.5757 7.14149L19.4677 7.14393C18.2724 6.95249 17.5056 7.08543 17.1885 7.53843C16.5062 8.51361 17.8271 10.8823 18.3911 11.8939C18.5351 12.1519 18.639 12.3384 18.6866 12.4536C18.8719 12.9028 19.1136 13.2047 19.3076 13.4473C19.4784 13.6607 19.6264 13.8457 19.6792 14.0629C19.7038 14.106 20.0524 14.6216 22.1207 14.1947C22.6391 14.0878 22.95 14.1791 23.0451 14.4666C23.232 15.0319 22.1831 15.6913 21.6024 15.9609C21.0821 16.2028 20.2517 16.3558 19.5332 16.3558ZM18.6527 15.6019C18.7183 15.6681 19.0466 15.7822 19.7265 15.753C20.331 15.7271 20.9685 15.5957 21.351 15.4181C21.8402 15.1909 22.1668 14.9368 22.3359 14.7634L22.2422 14.7806C20.9197 15.0536 19.9843 15.0172 19.4619 14.6724C19.4268 14.6492 19.393 14.6241 19.3607 14.5972C19.3041 14.6196 19.2517 14.6342 19.2144 14.6447C18.9182 14.7277 18.6118 14.8138 18.6527 15.6019ZM10.1098 17.2734C9.7813 17.2734 9.43555 17.2286 9.08249 17.1403C8.71668 17.0488 8.09999 16.7734 8.10937 16.3209C8.12005 15.8134 8.85824 15.6611 9.13612 15.6039C10.14 15.3971 10.2054 15.3142 10.5191 14.9158C10.6106 14.7997 10.7244 14.6552 10.8797 14.4819C11.1101 14.2239 11.3619 14.0932 11.6282 14.0932C11.8136 14.0932 11.9657 14.1561 12.0662 14.1979C12.3864 14.3306 12.6536 14.6516 12.7635 15.0354C12.8627 15.3817 12.8152 15.7151 12.6304 15.9741C12.0234 16.824 11.1517 17.2734 10.1098 17.2734ZM8.75568 16.3466C8.84587 16.4164 9.02662 16.5096 9.2278 16.5598C9.53362 16.6363 9.83024 16.6751 10.11 16.6751C10.9624 16.6751 11.6467 16.3222 12.1438 15.6262C12.2475 15.4811 12.2164 15.2968 12.1886 15.1999C12.1305 14.9968 11.9861 14.8121 11.8374 14.7504C11.7568 14.7171 11.6899 14.6916 11.6284 14.6916C11.5954 14.6916 11.4949 14.6916 11.3257 14.8807C11.209 15.012 11.0968 15.1472 10.9894 15.2861C10.5986 15.7822 10.4196 15.9506 9.25705 16.1901C8.97337 16.2482 8.82787 16.3074 8.75568 16.3466ZM11.0561 14.9666C10.9847 14.9665 10.9157 14.9408 10.8615 14.8943C10.8074 14.8477 10.7716 14.7833 10.7608 14.7127C10.7534 14.6631 10.7484 14.6131 10.7458 14.5629C9.9838 14.5487 9.24862 14.2217 8.69043 13.6393C7.98468 12.903 7.66349 11.8828 7.80937 10.8405C7.9678 9.70855 7.90855 8.70936 7.87668 8.17255C7.86787 8.0233 7.86149 7.91549 7.86187 7.84086C7.86243 7.74618 7.8643 7.49511 8.70355 7.06968C9.00205 6.91836 9.60055 6.65436 10.2544 6.58668C11.3376 6.47474 12.0516 6.95718 12.2653 7.9453C12.8422 10.6131 12.3111 11.793 11.9231 12.6547C11.8509 12.8152 11.7827 12.9667 11.7281 13.1136L11.6799 13.2429C11.475 13.7925 11.2978 14.2672 11.3522 14.6218C11.3581 14.6606 11.3564 14.7003 11.3471 14.7384C11.3377 14.7766 11.3209 14.8125 11.2977 14.8442C11.2744 14.8759 11.2452 14.9027 11.2116 14.923C11.178 14.9434 11.1407 14.9569 11.1019 14.9629L11.0561 14.9666ZM8.46205 7.92374L8.47368 8.1373C8.50668 8.69493 8.56818 9.73255 8.40168 10.9236C8.28149 11.7832 8.54399 12.6223 9.12224 13.2253C9.57918 13.7019 10.1805 13.965 10.7985 13.965H10.8112C10.8804 13.6734 10.9954 13.3656 11.1191 13.0339L11.1669 12.9052C11.2286 12.7395 11.3008 12.579 11.3773 12.4091C11.7506 11.5796 12.2154 10.5471 11.6801 8.07186C11.5742 7.58155 11.3171 7.29786 10.8947 7.2043C10.0269 7.01268 8.73374 7.66536 8.46205 7.92374ZM10.2677 7.7968C10.2527 7.90255 10.4614 8.18493 10.7336 8.22261C11.0053 8.26068 11.2378 8.0398 11.2526 7.93405C11.2674 7.8283 11.0589 7.71168 10.7867 7.6738C10.5146 7.63592 10.2821 7.69105 10.2677 7.7968ZM10.7961 8.32668L10.7197 8.32143C10.551 8.29799 10.3804 8.19168 10.2636 8.0368C10.2225 7.98243 10.1556 7.87705 10.1689 7.78293C10.1878 7.64493 10.3562 7.56224 10.6189 7.56224C10.6776 7.56224 10.7387 7.56655 10.8002 7.57518C10.9438 7.59505 11.0771 7.63649 11.1756 7.69143C11.3462 7.78668 11.3587 7.89299 11.3511 7.94793C11.3301 8.10036 11.0876 8.32668 10.7961 8.32668ZM10.3669 7.81442C10.3753 7.87967 10.5369 8.09493 10.7473 8.12399L10.7962 8.12736C10.9905 8.12736 11.1356 7.97455 11.1527 7.92449C11.1347 7.89036 11.0098 7.80561 10.773 7.77261C10.722 7.7653 10.6706 7.7616 10.6191 7.76155C10.4668 7.76155 10.386 7.79586 10.3669 7.81442ZM18.5428 7.58099C18.5576 7.68674 18.3491 7.96911 18.0771 8.00699C17.8052 8.04486 17.5725 7.82418 17.5575 7.71843C17.5432 7.61268 17.7517 7.49586 18.0236 7.45818C18.2955 7.42011 18.5278 7.47543 18.5428 7.58099ZM18.0142 8.06099C17.7525 8.06099 17.5266 7.85736 17.508 7.72518C17.4864 7.56655 17.7476 7.44599 18.0165 7.40868C18.0757 7.40043 18.1344 7.3963 18.1909 7.3963C18.423 7.3963 18.5767 7.46436 18.5921 7.57424C18.6021 7.6453 18.5475 7.75499 18.4536 7.85399C18.3915 7.91905 18.2612 8.03174 18.0836 8.0563L18.0142 8.06099ZM18.1911 7.49605C18.1393 7.49605 18.0853 7.49999 18.0306 7.50749C17.7604 7.54518 17.5991 7.65355 17.607 7.71168C17.616 7.77561 17.7885 7.96143 18.0144 7.96143L18.0701 7.95749C18.2177 7.93705 18.3285 7.84068 18.3814 7.78518C18.4644 7.69799 18.4974 7.61586 18.4935 7.58793C18.4882 7.5508 18.3885 7.49605 18.1911 7.49605ZM18.9345 13.6541C18.8803 13.6541 18.8271 13.6394 18.7806 13.6116C18.7341 13.5837 18.6961 13.5437 18.6706 13.4959C18.6451 13.448 18.6331 13.3942 18.6358 13.34C18.6386 13.2859 18.656 13.2335 18.6862 13.1886C19.3234 12.237 19.2067 11.2667 19.0941 10.3282C19.0459 9.92849 18.9964 9.51505 19.0091 9.1183C19.0222 8.71011 19.0742 8.37336 19.1242 8.04768C19.1837 7.6618 19.2399 7.2973 19.2167 6.86455C19.2146 6.82533 19.2202 6.78607 19.2332 6.74902C19.2463 6.71197 19.2665 6.67786 19.2928 6.64862C19.319 6.61939 19.3507 6.59561 19.3862 6.57865C19.4216 6.56168 19.46 6.55186 19.4992 6.54974C19.5385 6.54762 19.5777 6.55325 19.6148 6.5663C19.6518 6.57936 19.6859 6.59958 19.7152 6.62582C19.7444 6.65206 19.7682 6.6838 19.7851 6.71922C19.8021 6.75465 19.8119 6.79308 19.8141 6.8323C19.8407 7.32693 19.7771 7.73943 19.7156 8.13861C19.6682 8.44668 19.6191 8.76524 19.6072 9.13743C19.5958 9.4888 19.6406 9.86193 19.6881 10.2568C19.8081 11.2547 19.944 12.3857 19.1835 13.5214C19.1561 13.5623 19.1191 13.5958 19.0756 13.6189C19.0322 13.6421 18.9837 13.6542 18.9345 13.6541Z" fill="black"/>
</svg>
