<svg width="25" height="22" viewBox="0 0 25 22" fill="none" xmlns="http://www.w3.org/2000/svg">
<g clip-path="url(#clip0_76_625)">
<path d="M14.5778 2.59709C15.0147 2.16022 15.0147 1.45194 14.5778 1.01516C14.1409 0.578281 13.4327 0.578281 12.9959 1.01516C12.559 1.45203 12.559 2.16022 12.9959 2.59709C13.4327 3.03397 14.1409 3.03397 14.5778 2.59709ZM17.7406 5.75984C18.2261 5.2745 18.2261 4.48766 17.7406 4.00231C17.2554 3.51697 16.4685 3.51697 15.9831 4.00231C15.4978 4.48766 15.4978 5.2745 15.9831 5.75984C16.4685 6.24519 17.2553 6.24519 17.7407 5.75984M20.9031 8.92325C21.4369 8.38944 21.4369 7.52403 20.9031 6.99031C20.3694 6.4565 19.504 6.4565 18.9702 6.99031C18.4365 7.52403 18.4365 8.38944 18.9702 8.92325C19.504 9.45697 20.3694 9.45697 20.9031 8.92325ZM24.0633 12.0827C24.6455 11.5005 24.6455 10.5565 24.0633 9.97409C23.4811 9.39191 22.537 9.39191 21.9547 9.97409C21.3725 10.5564 21.3725 11.5004 21.9547 12.0827C22.537 12.6649 23.481 12.6649 24.0633 12.0827Z" fill="#5D88D6"/>
<path d="M8.3431 2.50927C8.73141 2.12095 8.73141 1.49114 8.3431 1.10283C7.9545 0.714422 7.32497 0.714422 6.93638 1.10283C6.54806 1.49114 6.54806 2.12095 6.93638 2.50927C7.32469 2.89758 7.9545 2.89767 8.34291 2.50927M11.5056 5.67202C11.9424 5.23514 11.9424 4.52686 11.5056 4.09008C11.0687 3.6532 10.3605 3.6532 9.92372 4.09008C9.48694 4.52695 9.48684 5.23514 9.92372 5.67202C10.3606 6.10889 11.0688 6.10889 11.5056 5.67202ZM14.6658 8.83214C15.1511 8.3468 15.1511 7.55995 14.6658 7.07461C14.1804 6.58927 13.3936 6.58927 12.9083 7.07461C12.4229 7.55995 12.4229 8.3468 12.9083 8.83214C13.3936 9.31748 14.1804 9.31748 14.6658 8.83214ZM17.8271 11.9932C18.3609 11.4595 18.3609 10.5941 17.8271 10.0603C17.2933 9.52645 16.4279 9.52645 15.8942 10.0603C15.3604 10.5941 15.3604 11.4595 15.8942 11.9932C16.4279 12.527 17.2933 12.527 17.8271 11.9932ZM20.9909 15.1583C21.5731 14.5761 21.5731 13.632 20.9909 13.0497C20.4086 12.4675 19.4646 12.4675 18.8823 13.0497C18.3 13.632 18.3 14.576 18.8823 15.1583C19.4645 15.7406 20.4085 15.7406 20.9908 15.1583" fill="#32DBFC"/>
<path d="M2.11161 2.42477C2.19282 2.34403 2.2573 2.24806 2.30136 2.14236C2.34542 2.03665 2.36818 1.9233 2.36835 1.80878C2.36852 1.69426 2.34608 1.58083 2.30233 1.475C2.25859 1.36917 2.19438 1.27301 2.1134 1.19204C2.03242 1.11106 1.93626 1.04687 1.83042 1.00313C1.72459 0.959385 1.61116 0.936959 1.49664 0.937135C1.38212 0.93731 1.26877 0.960083 1.16307 1.00415C1.05736 1.04821 0.961399 1.11271 0.880668 1.19393C0.717435 1.35716 0.625732 1.57855 0.625732 1.8094C0.625732 2.04024 0.717435 2.26163 0.880668 2.42486C1.0439 2.5881 1.26529 2.6798 1.49614 2.6798C1.72698 2.6798 1.94837 2.588 2.11161 2.42477ZM5.26986 5.58283C5.65826 5.19443 5.65826 4.56471 5.26986 4.1763C4.88145 3.7879 4.25173 3.7879 3.86332 4.1763C3.47492 4.56471 3.47492 5.19443 3.86332 5.58283C4.25173 5.97124 4.88145 5.97124 5.26986 5.58283ZM8.43382 8.74755C8.8707 8.31068 8.8707 7.60249 8.43382 7.16562C7.99695 6.72874 7.28876 6.72874 6.85189 7.16562C6.41501 7.60249 6.41501 8.31068 6.85189 8.74755C7.28876 9.18443 7.99704 9.18443 8.43382 8.74755ZM11.5952 11.9088C12.0805 11.4235 12.0805 10.6366 11.5952 10.1513C11.1098 9.66593 10.323 9.66593 9.83754 10.1513C9.3522 10.6365 9.3522 11.4235 9.83754 11.9088C10.3229 12.3941 11.1097 12.3941 11.5952 11.9088ZM14.7561 15.0707C15.2899 14.5369 15.2899 13.6715 14.7561 13.1378C14.2223 12.604 13.3569 12.604 12.8232 13.1378C12.2894 13.6715 12.2894 14.5369 12.8232 15.0707C13.3569 15.6045 14.2223 15.6045 14.7561 15.0707ZM17.9155 18.228C18.4978 17.6457 18.4978 16.7017 17.9155 16.1194C17.3333 15.5372 16.3893 15.5372 15.807 16.1194C15.2247 16.7017 15.2247 17.6456 15.807 18.228C16.3892 18.8102 17.3332 18.8102 17.9155 18.228Z" fill="black"/>
<path d="M8.34347 14.8027C8.73187 14.4143 8.73187 13.7846 8.34347 13.3962C7.95506 13.0078 7.32534 13.0078 6.93693 13.3962C6.54853 13.7846 6.54853 14.4143 6.93693 14.8027C7.32534 15.1911 7.95506 15.1911 8.34347 14.8027Z" fill="#5D88D6"/>
<path d="M4.5671 18.1675C5.1164 18.1675 5.5617 17.7222 5.5617 17.1729C5.5617 16.6236 5.1164 16.1783 4.5671 16.1783C4.0178 16.1783 3.57251 16.6236 3.57251 17.1729C3.57251 17.7222 4.0178 18.1675 4.5671 18.1675Z" fill="#5D88D6"/>
<path d="M1.49459 21.2432C2.04389 21.2432 2.48919 20.7979 2.48919 20.2486C2.48919 19.6993 2.04389 19.254 1.49459 19.254C0.945295 19.254 0.5 19.6993 0.5 20.2486C0.5 20.7979 0.945295 21.2432 1.49459 21.2432Z" fill="#5D88D6"/>
<path d="M7.64059 21.2414C8.18989 21.2414 8.63518 20.7962 8.63518 20.2469C8.63518 19.6976 8.18989 19.2523 7.64059 19.2523C7.09129 19.2523 6.646 19.6976 6.646 20.2469C6.646 20.7962 7.09129 21.2414 7.64059 21.2414Z" fill="#5D88D6"/>
<path d="M14.4917 20.9522C14.8801 20.5639 14.8801 19.9341 14.4917 19.5458C14.1033 19.1575 13.4735 19.1574 13.0851 19.5458C12.6967 19.9342 12.6967 20.5639 13.0851 20.9522C13.4735 21.3406 14.1033 21.3407 14.4917 20.9522ZM11.417 17.8759C11.8054 17.4875 11.8054 16.8578 11.417 16.4694C11.0285 16.081 10.3988 16.081 10.0104 16.4694C9.62201 16.8578 9.62201 17.4875 10.0104 17.8759C10.3988 18.2643 11.0285 18.2643 11.417 17.8759Z" fill="#5D88D6"/>
</g>
<defs>
<clipPath id="clip0_76_625">
<rect width="24" height="20.625" fill="white" transform="translate(0.5 0.6875)"/>
</clipPath>
</defs>
</svg>
