<svg width="25" height="24" viewBox="0 0 25 24" fill="none" xmlns="http://www.w3.org/2000/svg">
<path d="M1.66252 9.88122C2.91877 10.4812 9.85627 13.275 10.9438 13.8C12.0313 14.325 12.8188 14.325 14.2063 13.6125C15.5938 12.8812 22.1188 10.2187 23.375 9.56247C24.0125 9.22497 24.2938 8.96247 24.2938 8.73747V6.39372C24.2938 6.14997 23.975 5.94372 23.3563 5.71872C22.1375 5.26872 15.65 2.69997 14.4125 2.23122C13.175 1.78122 12.6688 1.79997 11.2063 2.32497C9.74377 2.84997 2.86252 5.54997 1.62502 6.03747C1.02502 6.28122 0.687524 6.48747 0.687524 6.73122H0.650024V9.11247C0.687524 9.33747 1.04377 9.58122 1.66252 9.88122ZM12.9875 10.2187L9.18127 8.64372L14.6375 7.79997L12.9875 10.2187ZM21.2563 6.46872L18.0313 7.74372L17.675 7.87497L14.45 6.59997L18.0313 5.19372L21.2563 6.46872ZM11.7688 4.12497L11.2438 3.14997L12.8938 3.78747L14.45 3.28122L14.0375 4.29372L15.6125 4.89372L13.5688 5.09997L13.1188 6.20622L12.3875 4.98747L10.025 4.78122L11.7688 4.12497ZM7.70002 5.49372C9.31252 5.49372 10.625 5.99997 10.625 6.61872C10.625 7.23747 9.31252 7.74372 7.70002 7.74372C6.08752 7.74372 4.77502 7.23747 4.77502 6.61872C4.77502 5.99997 6.08752 5.49372 7.70002 5.49372ZM23.375 11.2125C22.1188 11.8687 15.6125 14.55 14.225 15.2625C12.8375 15.9937 12.0688 15.975 10.9813 15.45C9.89377 14.925 2.91877 12.1312 1.68127 11.5312C1.04377 11.2312 0.687524 10.9875 0.687524 10.7437V13.125C0.687524 13.3687 1.04377 13.6125 1.66252 13.9125C2.91877 14.5125 9.85627 17.3062 10.9438 17.8312C12.0313 18.3562 12.8188 18.3562 14.2063 17.6437C15.5938 16.9125 22.1188 14.25 23.375 13.5937C24.0125 13.2562 24.2938 12.9937 24.2938 12.7687V10.425C24.2938 10.6312 23.9938 10.8937 23.375 11.2125ZM23.375 15.0937C22.1188 15.75 15.6125 18.4312 14.225 19.1437C12.8375 19.875 12.0688 19.8562 10.9813 19.3312C9.89377 18.8062 2.91877 16.0125 1.68127 15.4125C1.04377 15.1312 0.687524 14.8687 0.687524 14.625V17.0062C0.687524 17.25 1.04377 17.4937 1.66252 17.7937C2.91877 18.3937 9.85627 21.1875 10.9438 21.7125C12.0313 22.2375 12.8188 22.2375 14.2063 21.525C15.5938 20.7937 22.1188 18.1312 23.375 17.475C24.0125 17.1375 24.2938 16.875 24.2938 16.65V14.3062C24.2938 14.5312 23.9938 14.775 23.375 15.0937Z" fill="#D82C20"/>
</svg>
