<svg width="25" height="24" viewBox="0 0 25 24" fill="none" xmlns="http://www.w3.org/2000/svg">
<g clip-path="url(#clip0_91_3934)">
<path d="M10.4394 5.89499C11.1856 5.11874 12.2225 4.63687 13.3719 4.63687C14.8981 4.63687 16.2294 5.48812 16.9381 6.75187C17.5722 6.46838 18.2591 6.32206 18.9537 6.32249C21.7062 6.32249 23.9375 8.57437 23.9375 11.3494C23.9375 14.1262 21.7062 16.3781 18.9537 16.3781C18.6181 16.3781 18.29 16.3444 17.9712 16.2806C17.3469 17.3944 16.1562 18.1462 14.7912 18.1462C14.2194 18.1462 13.6794 18.015 13.1975 17.7787C12.5637 19.2675 11.09 20.3119 9.3706 20.3119C7.57998 20.3119 6.0556 19.1794 5.4706 17.5912C5.2156 17.6456 4.94935 17.6737 4.67748 17.6737C2.5456 17.6737 0.818726 15.9281 0.818726 13.7756C0.818726 12.3319 1.59498 11.0719 2.7481 10.3987C2.50321 9.83624 2.37744 9.22912 2.37873 8.61562C2.37873 6.13874 4.38873 4.13062 6.86935 4.13062C8.32435 4.12874 9.61998 4.82249 10.4394 5.89499Z" fill="#00A1E0"/>
<path d="M4.16751 12.5213C4.15251 12.5588 4.17313 12.5663 4.17688 12.5738C4.22001 12.6057 4.26501 12.6282 4.30813 12.6544C4.54438 12.78 4.76563 12.8157 5.00001 12.8157C5.47438 12.8157 5.76876 12.5625 5.76876 12.1575V12.15C5.76876 11.775 5.43688 11.6382 5.12376 11.5407L5.08251 11.5275C4.84813 11.4507 4.64376 11.385 4.64376 11.2313V11.2238C4.64376 11.0907 4.76188 10.9932 4.94563 10.9932C5.15001 10.9932 5.39188 11.0607 5.54751 11.1469C5.54751 11.1469 5.59251 11.1769 5.60938 11.1319C5.61876 11.1075 5.69751 10.8957 5.70501 10.8732C5.71438 10.8488 5.69751 10.83 5.68251 10.8207C5.50438 10.7119 5.25876 10.6388 5.00376 10.6388H4.95688C4.52376 10.6388 4.22001 10.9013 4.22001 11.2763V11.2838C4.22001 11.6794 4.55376 11.8088 4.86688 11.8988L4.91751 11.9138C5.14626 11.9832 5.34313 12.045 5.34313 12.2044V12.2119C5.34313 12.3582 5.21563 12.4688 5.00938 12.4688C4.92876 12.4688 4.67376 12.4669 4.39813 12.2925C4.36438 12.2738 4.34563 12.2588 4.31938 12.2438C4.30626 12.2344 4.27251 12.2213 4.25751 12.2644L4.16751 12.5213ZM11.1106 12.5213C11.0956 12.5588 11.1163 12.5663 11.12 12.5738C11.1631 12.6057 11.2081 12.6282 11.2513 12.6544C11.4875 12.78 11.7088 12.8157 11.9431 12.8157C12.4175 12.8157 12.7119 12.5625 12.7119 12.1575V12.15C12.7119 11.775 12.38 11.6382 12.0669 11.5407L12.0256 11.5275C11.7913 11.4507 11.5869 11.385 11.5869 11.2313V11.2238C11.5869 11.0907 11.705 10.9932 11.8888 10.9932C12.0931 10.9932 12.335 11.0607 12.4906 11.1469C12.4906 11.1469 12.5356 11.1769 12.5525 11.1319C12.5619 11.1075 12.6406 10.8957 12.6481 10.8732C12.6575 10.8488 12.6406 10.83 12.6256 10.8207C12.4475 10.7119 12.2019 10.6388 11.9469 10.6388H11.9C11.4669 10.6388 11.1631 10.9013 11.1631 11.2763V11.2838C11.1631 11.6794 11.4969 11.8088 11.81 11.8988L11.8606 11.9138C12.0894 11.9832 12.2863 12.045 12.2863 12.2044V12.2119C12.2863 12.3582 12.1588 12.4688 11.9525 12.4688C11.8719 12.4688 11.6169 12.4669 11.3413 12.2925C11.3075 12.2738 11.2888 12.2588 11.2625 12.2438C11.2531 12.2382 11.2138 12.2232 11.2006 12.2644L11.1106 12.5213ZM15.8488 11.7263C15.8488 11.955 15.8056 12.1369 15.7213 12.2644C15.6388 12.39 15.5113 12.4519 15.3369 12.4519C15.1606 12.4519 15.035 12.39 14.9525 12.2644C14.87 12.1369 14.8269 11.955 14.8269 11.7263C14.8269 11.4975 14.8681 11.3175 14.9525 11.19C15.035 11.0644 15.1606 11.0044 15.3369 11.0044C15.5131 11.0044 15.6388 11.0644 15.7231 11.19C15.8056 11.3157 15.8488 11.4957 15.8488 11.7263ZM16.2444 11.3007C16.205 11.1694 16.145 11.0532 16.0644 10.9575C15.9821 10.8585 15.8782 10.7796 15.7606 10.7269C15.6406 10.6707 15.4963 10.6425 15.3369 10.6425C15.1756 10.6425 15.0331 10.6707 14.9131 10.7269C14.7913 10.7832 14.69 10.8619 14.6094 10.9575C14.5288 11.055 14.4688 11.1694 14.4294 11.3007C14.39 11.4319 14.3713 11.5744 14.3713 11.7263C14.3713 11.8782 14.39 12.0207 14.4294 12.1519C14.4688 12.2832 14.5288 12.3994 14.6094 12.495C14.69 12.5925 14.7931 12.6694 14.9131 12.7238C15.035 12.7782 15.1775 12.8063 15.3369 12.8063C15.4981 12.8063 15.6406 12.7782 15.7606 12.7238C15.8806 12.6694 15.9838 12.5907 16.0644 12.495C16.145 12.3994 16.205 12.2832 16.2444 12.1519C16.2838 12.0207 16.3025 11.8782 16.3025 11.7263C16.3025 11.5744 16.2838 11.43 16.2444 11.3007ZM19.4956 12.39C19.4825 12.3507 19.445 12.3657 19.445 12.3657C19.3869 12.3882 19.3269 12.4088 19.2613 12.4182C19.1956 12.4275 19.1225 12.4332 19.0438 12.4332C18.8525 12.4332 18.7006 12.3769 18.59 12.2644C18.4813 12.1519 18.4194 11.97 18.4194 11.7225C18.4194 11.4975 18.4738 11.3288 18.5713 11.2013C18.6669 11.0738 18.815 11.0082 19.01 11.0082C19.1731 11.0082 19.2988 11.0269 19.4281 11.0682C19.4281 11.0682 19.46 11.0813 19.475 11.04C19.5088 10.9444 19.535 10.875 19.5725 10.77C19.5838 10.74 19.5575 10.7269 19.5481 10.7232C19.4975 10.7025 19.3756 10.6707 19.2838 10.6575C19.1975 10.6444 19.0981 10.6369 18.9875 10.6369C18.8206 10.6369 18.6725 10.665 18.5469 10.7213C18.4213 10.7775 18.3125 10.8544 18.2281 10.9519C18.1415 11.0523 18.0759 11.1689 18.035 11.295C17.9919 11.4263 17.9713 11.5688 17.9713 11.7207C17.9713 12.0488 18.0594 12.315 18.2356 12.5082C18.41 12.7032 18.6744 12.8025 19.0175 12.8025C19.22 12.8025 19.4281 12.7613 19.5781 12.7032C19.5781 12.7032 19.6063 12.69 19.595 12.6563L19.4956 12.39ZM20.1894 11.505C20.2081 11.3775 20.2438 11.2707 20.2981 11.1882C20.3806 11.0625 20.5044 10.9932 20.6806 10.9932C20.8569 10.9932 20.9731 11.0625 21.0556 11.1882C21.1119 11.2707 21.1344 11.3813 21.1438 11.505H20.1894ZM21.5206 11.2257C21.4869 11.0982 21.4044 10.9707 21.3481 10.9125C21.2619 10.8188 21.1775 10.755 21.0931 10.7194C20.9715 10.668 20.8408 10.6419 20.7088 10.6425C20.5419 10.6425 20.39 10.6707 20.2663 10.7288C20.1425 10.7869 20.0394 10.8657 19.9569 10.965C19.8763 11.0625 19.8144 11.1807 19.775 11.3119C19.7356 11.4432 19.7169 11.5875 19.7169 11.7394C19.7169 11.8932 19.7375 12.0375 19.7769 12.1669C19.8181 12.2982 19.8838 12.4125 19.9719 12.5082C20.06 12.6038 20.1725 12.6788 20.3094 12.7313C20.4444 12.7838 20.6075 12.81 20.795 12.81C21.1813 12.8082 21.3856 12.7219 21.47 12.6769C21.485 12.6694 21.4981 12.6544 21.4813 12.6132L21.3931 12.3675C21.38 12.3319 21.3425 12.345 21.3425 12.345C21.2469 12.3807 21.11 12.4444 20.7931 12.4444C20.585 12.4444 20.4313 12.3825 20.3356 12.2869C20.2363 12.1894 20.1875 12.045 20.18 11.8407L21.5206 11.8425C21.5206 11.8425 21.5563 11.8425 21.56 11.8069C21.5619 11.7882 21.6069 11.5275 21.5206 11.2257ZM9.45688 11.505C9.47563 11.3775 9.51126 11.2707 9.56563 11.1882C9.64813 11.0625 9.77188 10.9932 9.94813 10.9932C10.1244 10.9932 10.2406 11.0625 10.3231 11.1882C10.3775 11.2707 10.4019 11.3813 10.4113 11.505H9.45688ZM10.79 11.2257C10.7563 11.0982 10.6738 10.9707 10.6194 10.9125C10.5331 10.8188 10.4488 10.755 10.3644 10.7194C10.2428 10.668 10.112 10.6419 9.98001 10.6425C9.81313 10.6425 9.66126 10.6707 9.53751 10.7288C9.41376 10.7869 9.31063 10.8657 9.22813 10.965C9.14751 11.0625 9.08563 11.1807 9.04626 11.3119C9.00688 11.4432 8.98813 11.5875 8.98813 11.7394C8.98813 11.8932 9.00876 12.0375 9.04813 12.1669C9.08938 12.2982 9.15501 12.4125 9.24313 12.5082C9.33126 12.6038 9.44376 12.6788 9.58063 12.7313C9.71563 12.7838 9.87876 12.81 10.0663 12.81C10.4525 12.8082 10.6569 12.7219 10.7413 12.6769C10.7563 12.6694 10.7694 12.6544 10.7525 12.6132L10.6644 12.3675C10.6513 12.3319 10.6138 12.345 10.6138 12.345C10.5181 12.3807 10.3813 12.4444 10.0644 12.4444C9.85626 12.4444 9.70251 12.3825 9.60688 12.2869C9.50751 12.1894 9.45876 12.045 9.45126 11.8407L10.7919 11.8425C10.7919 11.8425 10.8275 11.8425 10.8313 11.8069C10.8313 11.7882 10.8763 11.5275 10.79 11.2257ZM6.56001 12.3825C6.50751 12.3413 6.50001 12.33 6.48313 12.3038C6.45688 12.2625 6.44376 12.2044 6.44376 12.1294C6.44376 12.0113 6.48313 11.9269 6.56376 11.8707C6.56188 11.8707 6.67813 11.7694 6.95188 11.7732C7.14313 11.775 7.31563 11.805 7.31563 11.805V12.4144C7.31563 12.4144 7.14501 12.45 6.95376 12.4632C6.68001 12.4782 6.56001 12.3825 6.56001 12.3825ZM7.09438 11.4413C7.04001 11.4375 6.96876 11.4357 6.88438 11.4357C6.77001 11.4357 6.65938 11.4507 6.55438 11.4788C6.44938 11.5069 6.35563 11.55 6.27501 11.6082C6.19438 11.6663 6.12876 11.7413 6.08001 11.8294C6.03313 11.9175 6.00876 12.0225 6.00876 12.1388C6.00876 12.2569 6.02938 12.36 6.07063 12.4444C6.11188 12.5288 6.17001 12.6 6.24501 12.6544C6.32001 12.7088 6.41188 12.7482 6.51876 12.7725C6.62376 12.7969 6.74376 12.8082 6.87313 12.8082C7.01001 12.8082 7.14688 12.7969 7.28001 12.7744C7.41126 12.7519 7.57251 12.72 7.61751 12.7088C7.66251 12.6975 7.71126 12.6844 7.71126 12.6844C7.74501 12.6769 7.74126 12.6413 7.74126 12.6413V11.415C7.74126 11.1469 7.67001 10.9463 7.52751 10.8244C7.38688 10.7007 7.18063 10.6388 6.91251 10.6388C6.81126 10.6388 6.65001 10.6519 6.55438 10.6725C6.55438 10.6725 6.26188 10.7288 6.14188 10.8225C6.14188 10.8225 6.11563 10.8394 6.13063 10.875L6.22626 11.13C6.23751 11.1638 6.26938 11.1525 6.26938 11.1525C6.26938 11.1525 6.27876 11.1488 6.29188 11.1413C6.55063 11.0007 6.87501 11.0044 6.87501 11.0044C7.01938 11.0044 7.13188 11.0325 7.20688 11.0907C7.28001 11.1469 7.31751 11.2313 7.31751 11.4094V11.4657C7.19938 11.4507 7.09438 11.4413 7.09438 11.4413ZM17.9019 10.7513C17.9056 10.7421 17.9055 10.7318 17.9016 10.7226C17.8978 10.7135 17.8904 10.7063 17.8813 10.7025C17.8588 10.6932 17.7444 10.6688 17.6563 10.6632C17.4875 10.6538 17.3938 10.6819 17.3113 10.7194C17.2288 10.7569 17.1369 10.8169 17.0844 10.8863V10.7232C17.0844 10.7007 17.0675 10.6819 17.045 10.6819H16.7019C16.6794 10.6819 16.6625 10.7007 16.6625 10.7232V12.7219C16.6625 12.7444 16.6813 12.7632 16.7038 12.7632H17.0563C17.0788 12.7632 17.0975 12.7444 17.0975 12.7219V11.7225C17.0975 11.5894 17.1125 11.4544 17.1425 11.37C17.1706 11.2875 17.2119 11.22 17.2606 11.1732C17.3094 11.1263 17.3656 11.0925 17.4256 11.0738C17.4875 11.055 17.5569 11.0475 17.6056 11.0475C17.675 11.0475 17.7538 11.0663 17.7538 11.0663C17.78 11.07 17.7931 11.0532 17.8025 11.0307C17.8231 10.9707 17.8888 10.7869 17.9019 10.7513Z" fill="black"/>
<path d="M14.5962 9.82503C14.5531 9.8119 14.5137 9.80253 14.4631 9.79315C14.4125 9.78378 14.3506 9.78003 14.2812 9.78003C14.0394 9.78003 13.8481 9.8494 13.7131 9.9844C13.58 10.1194 13.49 10.3238 13.4431 10.5919L13.4262 10.6819H13.1225C13.1225 10.6819 13.085 10.68 13.0775 10.7213L13.0268 11.0007C13.0231 11.0269 13.0344 11.0438 13.07 11.0438H13.3662L13.0662 12.72C13.0437 12.855 13.0156 12.9657 12.9856 13.05C12.9556 13.1325 12.9275 13.1944 12.8918 13.2413C12.8581 13.2844 12.8262 13.3163 12.77 13.335C12.7231 13.35 12.6706 13.3575 12.6125 13.3575C12.5806 13.3575 12.5375 13.3519 12.5056 13.3463C12.4737 13.3407 12.4569 13.3332 12.4325 13.3238C12.4325 13.3238 12.3987 13.3107 12.3837 13.3444C12.3725 13.3725 12.2937 13.59 12.2844 13.6163C12.275 13.6425 12.2881 13.6632 12.305 13.6707C12.3444 13.6838 12.3744 13.6932 12.4269 13.7063C12.5019 13.7232 12.5637 13.725 12.6237 13.725C12.7475 13.725 12.86 13.7082 12.9519 13.6744C13.0456 13.6407 13.1262 13.5807 13.1994 13.5019C13.2781 13.4157 13.3269 13.3257 13.3737 13.2019C13.4206 13.08 13.46 12.9282 13.4919 12.7519L13.7937 11.0438H14.2344C14.2344 11.0438 14.2719 11.0457 14.2794 11.0044L14.33 10.725C14.3337 10.6988 14.3225 10.6819 14.2868 10.6819H13.8575C13.8594 10.6725 13.88 10.5207 13.9287 10.38C13.9494 10.32 13.9887 10.2713 14.0225 10.2375C14.0562 10.2038 14.0937 10.1813 14.135 10.1682C14.1781 10.155 14.225 10.1475 14.2794 10.1475C14.3187 10.1475 14.36 10.1513 14.39 10.1588C14.4312 10.1682 14.4481 10.1719 14.4593 10.1757C14.5025 10.1888 14.51 10.1757 14.5175 10.155L14.6206 9.87378C14.6318 9.8419 14.6056 9.82878 14.5962 9.82503ZM8.61123 12.7219C8.61123 12.7444 8.59435 12.7632 8.57185 12.7632H8.2156C8.1931 12.7632 8.1781 12.7444 8.1781 12.7219V9.86253C8.1781 9.84003 8.1931 9.82128 8.2156 9.82128H8.57185C8.59435 9.82128 8.61123 9.84003 8.61123 9.86253V12.7219Z" fill="black"/>
</g>
<defs>
<clipPath id="clip0_91_3934">
<rect width="24" height="24" fill="white" transform="translate(0.5)"/>
</clipPath>
</defs>
</svg>
