<svg width="25" height="12" viewBox="0 0 25 12" fill="none" xmlns="http://www.w3.org/2000/svg">
<g clip-path="url(#clip0_33_1098)">
<path d="M0.5 11.9194H12.6296L24.5 0.046875H0.5V11.9194Z" fill="url(#paint0_linear_33_1098)"/>
<path d="M14.7429 2.4214H12.3725L12.3805 7.99624L10.3165 2.41929H8.26993L6.50804 7.07679C6.32072 5.89165 5.09546 5.48271 4.13138 5.17638C3.49477 4.97191 2.81907 4.67112 2.82591 4.33873C2.83121 4.06591 3.18741 3.81288 3.89527 3.85062C4.37016 3.87621 4.78965 3.91446 5.62416 4.31758L6.44471 2.88762C5.68379 2.50029 4.63163 2.25574 3.7689 2.25494H3.7636C2.75761 2.25494 1.91996 2.58073 1.40072 3.11768C1.03875 3.4923 0.843521 3.96879 0.835646 4.49566C0.822427 5.22068 1.08811 5.73466 1.6464 6.14543C2.11815 6.49109 2.72152 6.71533 3.25313 6.87996C3.90877 7.08312 4.44436 7.25988 4.43775 7.6361C4.4325 7.7733 4.38075 7.90151 4.28213 8.00496C4.11854 8.1738 3.8679 8.23713 3.52093 8.24402C2.85155 8.25822 2.35561 8.15294 1.56511 7.68574L0.835083 9.13418C1.62474 9.58324 2.46296 9.80852 3.41541 9.80852L3.62963 9.80693C4.45861 9.79193 5.13136 9.59323 5.66588 9.16319C5.69654 9.13863 5.72396 9.11383 5.75246 9.08876L5.66274 9.55104L7.66261 9.54471L8.02144 8.62601C8.39869 8.75477 8.82769 8.82602 9.28308 8.82602C9.72685 8.82602 10.1442 8.75848 10.5144 8.63712L10.7645 9.54471L14.3527 9.54813L14.3614 7.45376H15.1249C16.9704 7.45376 18.0614 6.51452 18.0614 4.93943C18.0608 3.18523 17.0003 2.42116 14.7429 2.42116V2.4214ZM9.28308 7.1868C9.00736 7.1868 8.7488 7.13876 8.52643 7.05433L9.27465 4.69169H9.28918L10.0253 7.06094C9.80363 7.14012 9.55111 7.1868 9.2828 7.1868H9.28308ZM14.8816 5.82935H14.3609V3.92533H14.8819C15.5758 3.92533 16.1299 4.15643 16.1299 4.86508C16.1293 5.59854 15.5758 5.8294 14.8819 5.8294" fill="black"/>
</g>
<defs>
<linearGradient id="paint0_linear_33_1098" x1="1200.5" y1="0.046875" x2="1200.5" y2="1187.33" gradientUnits="userSpaceOnUse">
<stop stop-color="#00AEEF"/>
<stop offset="0.212" stop-color="#0097DC"/>
<stop offset="0.519" stop-color="#007CC5"/>
<stop offset="0.792" stop-color="#006CB8"/>
<stop offset="1" stop-color="#0066B3"/>
</linearGradient>
<clipPath id="clip0_33_1098">
<rect width="24" height="11.9062" fill="white" transform="translate(0.5 0.046875)"/>
</clipPath>
</defs>
</svg>
