<svg width="18" height="18" viewBox="0 0 18 18" fill="none" xmlns="http://www.w3.org/2000/svg">
<path d="M11.8163 10.6913H11.2238L11.0138 10.4888C11.7488 9.63378 12.1913 8.52378 12.1913 7.31628C12.1913 4.62378 10.0088 2.44128 7.31625 2.44128C4.62375 2.44128 2.44125 4.62378 2.44125 7.31628C2.44125 10.0088 4.62375 12.1913 7.31625 12.1913C8.52375 12.1913 9.63375 11.7488 10.4888 11.0138L10.6913 11.2238V11.8163L14.4413 15.5588L15.5588 14.4413L11.8163 10.6913ZM7.31625 10.6913C5.44875 10.6913 3.94125 9.18378 3.94125 7.31628C3.94125 5.44878 5.44875 3.94128 7.31625 3.94128C9.18375 3.94128 10.6913 5.44878 10.6913 7.31628C10.6913 9.18378 9.18375 10.6913 7.31625 10.6913Z" fill="white"/>
</svg>
