<svg width="14" height="14" viewBox="0 0 14 14" fill="none" xmlns="http://www.w3.org/2000/svg">
<path d="M9.81625 8.69125H9.22375L9.01375 8.48875C9.74875 7.63375 10.1913 6.52375 10.1913 5.31625C10.1913 2.62375 8.00875 0.441254 5.31625 0.441254C2.62375 0.441254 0.441254 2.62375 0.441254 5.31625C0.441254 8.00875 2.62375 10.1913 5.31625 10.1913C6.52375 10.1913 7.63375 9.74875 8.48875 9.01375L8.69125 9.22375V9.81625L12.4413 13.5588L13.5588 12.4413L9.81625 8.69125ZM5.31625 8.69125C3.44875 8.69125 1.94125 7.18375 1.94125 5.31625C1.94125 3.44875 3.44875 1.94125 5.31625 1.94125C7.18375 1.94125 8.69125 3.44875 8.69125 5.31625C8.69125 7.18375 7.18375 8.69125 5.31625 8.69125Z" fill="black"/>
</svg>
