<svg width="24" height="24" viewBox="0 0 24 24" fill="none" xmlns="http://www.w3.org/2000/svg">
<g clip-path="url(#clip0_76_651)">
<path d="M5.11035 15.1348C5.11035 16.5092 3.98948 17.6318 2.61491 17.6318C1.24035 17.6318 0.118164 16.5092 0.118164 15.1348C0.118164 13.7604 1.24073 12.6379 2.6151 12.6379H5.11054L5.11035 15.1348ZM6.36829 15.1348C6.36829 13.7604 7.49085 12.6379 8.86523 12.6379C10.2396 12.6379 11.3622 13.7603 11.3622 15.1348V21.3851C11.3622 22.7595 10.2398 23.8821 8.86523 23.8821C7.49085 23.8821 6.36829 22.7595 6.36829 21.3851V15.1348Z" fill="#DE1C59"/>
<path d="M8.86523 5.11029C7.49085 5.11029 6.36829 3.98942 6.36829 2.61485C6.36829 1.24029 7.49085 0.118103 8.86523 0.118103C10.2396 0.118103 11.3622 1.24067 11.3622 2.61504V5.11048L8.86523 5.11029ZM8.86523 6.36823C10.2396 6.36823 11.3622 7.49079 11.3622 8.86516C11.3622 10.2395 10.2398 11.3621 8.86523 11.3621H2.61491C1.24054 11.3621 0.118164 10.2397 0.118164 8.86516C0.118164 7.49079 1.24073 6.36823 2.6151 6.36823H8.86523Z" fill="#35C5F0"/>
<path d="M18.8896 8.86516C18.8896 7.49079 20.0105 6.36823 21.3851 6.36823C22.7596 6.36823 23.882 7.49079 23.882 8.86516C23.882 10.2395 22.7594 11.3621 21.3851 11.3621H18.8896V8.86516ZM17.6317 8.86516C17.6317 10.2395 16.5091 11.3621 15.1348 11.3621C13.7604 11.3621 12.6378 10.2397 12.6378 8.86516V2.61485C12.6378 1.24048 13.7602 0.118103 15.1348 0.118103C16.5091 0.118103 17.6317 1.24067 17.6317 2.61504V8.86516Z" fill="#2EB57D"/>
<path d="M15.1348 18.8897C16.5091 18.8897 17.6317 20.0106 17.6317 21.3851C17.6317 22.7597 16.5091 23.8821 15.1348 23.8821C13.7604 23.8821 12.6378 22.7595 12.6378 21.3851V18.8897H15.1348ZM15.1348 17.6318C13.7604 17.6318 12.6378 16.5092 12.6378 15.1348C12.6378 13.7604 13.7602 12.6379 15.1348 12.6379H21.3851C22.7594 12.6379 23.882 13.7603 23.882 15.1348C23.882 16.5092 22.7594 17.6318 21.3851 17.6318H15.1348Z" fill="#EBB02E"/>
</g>
<defs>
<clipPath id="clip0_76_651">
<rect width="24" height="24" fill="white"/>
</clipPath>
</defs>
</svg>
