<svg width="24" height="24" viewBox="0 0 24 24" fill="none" xmlns="http://www.w3.org/2000/svg">
<g clip-path="url(#clip0_76_640)">
<path d="M9.39488 15.1584C10.1589 15.2127 10.7643 15.8385 10.7801 16.6061L10.7804 16.6369V22.4583C10.7804 23.2787 10.1086 23.9435 9.28369 23.9435C8.46478 23.9435 7.80122 23.2947 7.78538 22.4879L7.7851 22.4583V19.2019L4.93435 20.8315C4.2195 21.2438 3.30535 20.9998 2.89031 20.2913C2.4825 19.59 2.71538 18.6938 3.40978 18.2761L3.43744 18.2599L8.52572 15.3522C8.78875 15.2002 9.09218 15.1326 9.39488 15.1584ZM15.4372 15.3323L15.473 15.3522L20.5602 18.2599C21.2771 18.6701 21.5203 19.5808 21.1083 20.2913C20.7007 20.9906 19.8038 21.2374 19.0924 20.8473L19.0643 20.8315L16.2156 19.2019V22.4583C16.2156 23.2787 15.5458 23.9435 14.7169 23.9435C13.898 23.9435 13.2362 23.2947 13.2203 22.4879L13.2201 22.4583V16.6369C13.2201 15.8553 13.8296 15.2134 14.6057 15.1584C14.8841 15.1348 15.1734 15.1894 15.4373 15.3323M2.21916 7.78209L2.24728 7.79775L7.33172 10.7073C7.68919 10.9116 7.92778 11.2356 8.02847 11.5983C8.06194 11.7151 8.07722 11.8317 8.08313 11.9486C8.08688 12.1099 8.06578 12.2734 8.01497 12.4319C7.90747 12.778 7.67635 13.0725 7.36566 13.2592L7.33172 13.2791L2.24728 16.1906C1.52953 16.6 0.614439 16.3578 0.202596 15.6494C-0.207186 14.9463 0.0257832 14.0544 0.722346 13.6361L0.749721 13.6202L3.59091 11.9962L0.749721 10.3677C0.031877 9.957 -0.213373 9.05128 0.202502 8.34197C0.609096 7.64091 1.50581 7.39472 2.21916 7.78209ZM23.7983 8.34197C24.2131 9.05119 23.9678 9.957 23.2502 10.3674L20.4088 11.9959L23.2502 13.6199C23.9678 14.0311 24.213 14.9371 23.7983 15.6492C23.3842 16.3576 22.4683 16.5998 21.7533 16.1904L16.665 13.279C16.3257 13.0834 16.0901 12.7765 15.9856 12.4318C15.936 12.2757 15.9133 12.1123 15.9185 11.9485C15.9215 11.83 15.9392 11.7123 15.9712 11.5982C16.0766 11.2217 16.3258 10.9017 16.665 10.7072L21.7533 7.79766C22.4683 7.38825 23.3842 7.63172 23.7983 8.34197ZM12.3099 9.21938C12.3961 9.21938 12.5149 9.26775 12.5753 9.32944L14.6902 11.4225C14.7504 11.4823 14.7994 11.601 14.7994 11.6866V12.3038C14.7994 12.3874 14.7504 12.506 14.6902 12.5649L12.5753 14.6581C12.5149 14.7196 12.398 14.7699 12.3099 14.7699H11.688C11.6026 14.7699 11.4838 14.7196 11.4224 14.6581L9.30872 12.5649C9.24816 12.506 9.19931 12.3874 9.19931 12.3038V11.6866C9.19931 11.601 9.24816 11.4822 9.30872 11.4225L11.4224 9.32944C11.4838 9.26775 11.6026 9.21938 11.688 9.21938H12.3099ZM12.0107 11.0057H11.987C11.9017 11.0057 11.7829 11.0552 11.7234 11.1148L11.1111 11.7189C11.0497 11.7815 11.0027 11.8993 11.0027 11.9839V12.0075C11.0027 12.091 11.0497 12.2078 11.1111 12.2687L11.7234 12.8745C11.7837 12.9343 11.9016 12.9836 11.9869 12.9836H12.0107C12.0962 12.9836 12.2151 12.9343 12.2754 12.8745L12.8877 12.2687C12.9481 12.2078 12.9998 12.091 12.9998 12.0075V11.9839C12.9998 11.8993 12.9481 11.7814 12.8877 11.7189L12.2754 11.1148C12.2151 11.0552 12.0962 11.0057 12.0107 11.0057ZM14.7169 0.046875C15.5358 0.046875 16.1993 0.695906 16.2153 1.50047L16.2156 1.53V4.78744L19.0643 3.15581C19.7802 2.74575 20.6953 2.98894 21.1083 3.69806C21.3038 4.03464 21.3589 4.43473 21.2615 4.81162C21.1641 5.18851 20.9221 5.51184 20.588 5.71153L20.5602 5.72775L15.473 8.63813C15.21 8.78879 14.9076 8.85629 14.6056 8.83172C13.8398 8.77575 13.2361 8.14894 13.2203 7.38216L13.2201 7.35141V1.53C13.2202 0.71175 13.8881 0.046875 14.7169 0.046875ZM9.28369 0.046875C10.0987 0.046875 10.7642 0.695906 10.7801 1.50047L10.7804 1.53V7.35141C10.7804 8.13206 10.1692 8.775 9.39478 8.83172C9.10609 8.85519 8.81676 8.79483 8.56153 8.65791L8.52572 8.63813L3.43744 5.72775C2.72156 5.31731 2.47716 4.41047 2.89031 3.69806C3.3 2.99822 4.19588 2.75213 4.90641 3.14025L4.93435 3.15581L7.7851 4.78744V1.53C7.7851 0.71175 8.45485 0.046875 9.28369 0.046875Z" fill="#29B5E8"/>
</g>
<defs>
<clipPath id="clip0_76_640">
<rect width="24" height="23.9062" fill="white" transform="translate(0 0.046875)"/>
</clipPath>
</defs>
</svg>
