<svg width="24" height="24" viewBox="0 0 24 24" fill="none" xmlns="http://www.w3.org/2000/svg">
<path fill-rule="evenodd" clip-rule="evenodd" d="M13.6078 12.912V7.68005H10.3918V12.912L5.86786 15.528L7.47585 18.312L11.9998 15.696L16.5238 18.312L18.1318 15.528L13.6078 12.912Z" fill="#669DF6"/>
<path fill-rule="evenodd" clip-rule="evenodd" d="M13.608 12.912V7.68005H12V13.824L6.672 16.92L7.47599 18.312L12 15.696L16.524 18.312L18.1319 15.528L13.608 12.912Z" fill="#4285F4"/>
<path fill-rule="evenodd" clip-rule="evenodd" d="M10.3801 0.924072L7.94409 2.38807V6.86405L12.0001 9.06004V5.32805L10.3801 4.58406V0.924072Z" fill="#AECBFA"/>
<path fill-rule="evenodd" clip-rule="evenodd" d="M13.6199 4.58406L11.9999 5.32805V9.06004L16.0559 6.86405V2.38807L13.6199 0.924072V4.58406Z" fill="#669DF6"/>
<path fill-rule="evenodd" clip-rule="evenodd" d="M19.368 18.096L19.272 19.764L22.512 21.6L19.896 23.0399L16.0081 20.796L16.1401 16.2L20.064 13.8L24 16.056V19.044L20.772 17.184L19.368 18.096Z" fill="#669DF6"/>
<path fill-rule="evenodd" clip-rule="evenodd" d="M4.63198 18.096L3.22799 17.184L0 19.044V16.056L3.87598 13.812L7.79997 16.212L7.93196 20.808L4.10398 23.076L1.48799 21.6L4.72798 19.728L4.63198 18.096Z" fill="#669DF6"/>
<path fill-rule="evenodd" clip-rule="evenodd" d="M23.9998 19.044L23.9398 16.056L20.0638 13.824L16.1398 16.236L19.3678 18.096L20.7598 17.184L23.9998 19.044Z" fill="#AECBFA"/>
<path fill-rule="evenodd" clip-rule="evenodd" d="M0 19.044L3.23999 17.184L4.63198 18.096L7.85997 16.236L3.93598 13.824L0.0599997 16.056L0 19.044Z" fill="#AECBFA"/>
</svg>
