<svg width="25" height="24" viewBox="0 0 25 24" fill="none" xmlns="http://www.w3.org/2000/svg">
<g clip-path="url(#clip0_76_612)">
<path d="M15.7138 11.204L10.9074 12.7734L6.72613 14.6188L5.55613 14.9278C5.24733 15.2227 4.93116 15.5098 4.60794 15.7888C4.23744 16.1083 3.89244 16.3991 3.62732 16.6097C3.33294 16.8422 2.897 17.2781 2.67538 17.5543C2.34463 17.9685 2.08325 18.408 1.97057 18.7459C1.77069 19.3562 1.86894 19.9738 2.25388 20.5442C2.74813 21.2707 3.7325 22.0119 4.88038 22.5167C5.46538 22.7749 6.44975 23.1054 7.19113 23.2905C8.42244 23.603 10.8058 23.9411 12.1171 23.9917C12.3823 24.0028 12.7383 24.0028 12.7528 23.9917C12.782 23.9735 12.9854 23.5849 13.2217 23.1019C14.0279 21.456 14.6092 19.9121 14.9255 18.5932C15.1143 17.7941 15.2632 16.7297 15.3613 15.4691C15.3868 15.1166 15.3976 13.9359 15.3759 13.5364C15.3431 12.8825 15.2849 12.3521 15.194 11.8327C15.1796 11.7562 15.176 11.6872 15.1833 11.6835C15.1978 11.6728 15.2414 11.6582 15.8336 11.4874L15.7138 11.204ZM14.6167 11.8472C14.6604 11.8472 14.7764 12.9622 14.8055 13.667C14.8128 13.8161 14.8093 13.9142 14.8018 13.9142C14.7729 13.9142 14.1879 13.5692 13.7703 13.3074C13.4069 13.0787 12.7166 12.621 12.6078 12.5336C12.5713 12.5083 12.5748 12.5045 12.8728 12.4029C13.3777 12.2323 14.5768 11.847 14.6165 11.847L14.6167 11.8472ZM12.1679 12.6534C12.2008 12.6534 12.2842 12.7007 12.4841 12.8242C13.2324 13.293 14.2498 13.8598 14.6857 14.0486C14.8199 14.1067 14.8346 14.0848 14.5258 14.2957C13.8646 14.7461 13.04 15.1894 12.0301 15.6362C11.852 15.716 11.7029 15.7777 11.6994 15.7777C11.6921 15.7777 11.714 15.687 11.7431 15.578C11.9863 14.6734 12.1244 13.758 12.1318 13.0241C12.1355 12.6607 12.1355 12.6607 12.1681 12.6499C12.1606 12.6536 12.1644 12.6536 12.1681 12.6536L12.1679 12.6534ZM11.6632 12.846C11.6849 12.8679 11.6703 13.6817 11.6413 13.9033C11.5761 14.4388 11.4643 14.9675 11.3071 15.4835C11.2672 15.618 11.2308 15.7307 11.2235 15.7378C11.2089 15.756 10.7113 15.269 10.5478 15.0802C10.2644 14.7532 10.0428 14.4264 9.87932 14.1067C9.79588 13.9432 9.665 13.6235 9.67588 13.6127C9.734 13.5725 11.6486 12.8315 11.6632 12.846ZM9.28719 13.7797C9.29075 13.7797 9.29432 13.7797 9.29807 13.7833C9.30538 13.7906 9.33088 13.8489 9.35263 13.9142C9.46888 14.2301 9.73025 14.6951 9.95563 14.993C10.2028 15.32 10.526 15.669 10.7949 15.8977C10.8821 15.9703 10.9619 16.0393 10.9728 16.0502C10.9946 16.0721 11.0019 16.0684 10.4096 16.2937C9.72332 16.5553 8.97482 16.8169 8.11738 17.0929C7.91257 17.1589 7.70794 17.2255 7.5035 17.2927C7.47069 17.3036 7.48176 17.2852 7.57607 17.1364C8.00113 16.4719 8.64763 15.1676 9.011 14.2447C9.07288 14.0848 9.13475 13.925 9.14563 13.8887C9.16007 13.8379 9.17825 13.8197 9.22532 13.7942C9.25082 13.787 9.27632 13.7797 9.28719 13.7797ZM8.56063 14.0812C8.5715 14.0885 8.38625 14.4772 8.20457 14.8331C7.85207 15.5199 7.46713 16.1957 6.95132 17.0167C6.86394 17.1583 6.78069 17.2892 6.76944 17.3036C6.75144 17.3291 6.74432 17.3218 6.686 17.2093C6.56244 16.9657 6.46082 16.6534 6.40625 16.3663C6.35188 16.083 6.36275 15.5889 6.42463 15.2837C6.4715 15.0587 6.46813 15.0622 6.57707 15.0077C7.04207 14.7714 8.546 14.0668 8.56063 14.0812ZM14.8273 14.3357V14.4881C14.8273 15.2983 14.7401 16.41 14.6129 17.22C14.5912 17.3617 14.573 17.478 14.5694 17.4817C14.5694 17.4817 14.4641 17.4527 14.3407 17.4163C13.7617 17.2324 13.2019 16.9928 12.6693 16.7006C12.3168 16.508 11.8049 16.1919 11.8194 16.1775C11.8229 16.1737 11.9756 16.0939 12.1535 15.9994C12.8656 15.6289 13.5485 15.2293 14.1408 14.8331C14.3624 14.6842 14.6966 14.4446 14.7691 14.3792L14.8273 14.3357ZM5.81788 15.4108C5.83232 15.4108 5.82857 15.4399 5.80682 15.5707C5.78869 15.6997 5.77537 15.8293 5.76688 15.9592C5.73782 16.4899 5.825 16.8823 6.08657 17.4199C6.15932 17.5687 6.21744 17.6923 6.21369 17.6959C6.18838 17.7178 3.78332 18.4226 3.02769 18.6296C2.8025 18.6915 2.60638 18.7459 2.59175 18.7494C2.56625 18.7569 2.56269 18.7532 2.57357 18.6913C2.65719 18.1573 3.06407 17.4598 3.63088 16.8712C4.0085 16.4788 4.31019 16.25 4.826 15.9559C5.1965 15.7451 5.76688 15.429 5.81038 15.4145C5.81038 15.4108 5.81413 15.4108 5.81788 15.4108ZM11.4851 16.4244C11.4888 16.4207 11.5758 16.4681 11.6812 16.5298C12.4588 16.9804 13.5412 17.3981 14.4639 17.6124L14.5475 17.6306L14.4313 17.696C13.9483 17.9649 12.3605 18.626 10.7368 19.2326C10.5005 19.3198 10.268 19.407 10.2245 19.4252C10.181 19.4434 10.1409 19.4542 10.1409 19.4505C10.1409 19.4467 10.2063 19.3198 10.2898 19.1636C10.7439 18.3135 11.2016 17.2781 11.4343 16.5589C11.4633 16.4899 11.4813 16.4282 11.4849 16.4244H11.4851ZM10.9076 16.6132C10.9111 16.617 10.8821 16.6933 10.8457 16.7805C10.5296 17.547 10.1154 18.3827 9.58494 19.3198C9.45069 19.5598 9.338 19.7522 9.33444 19.7522C9.33088 19.7522 9.22175 19.6867 9.09088 19.6069C8.32082 19.1345 7.63775 18.5533 7.19113 17.9902L7.1255 17.9104L7.45625 17.8194C8.6405 17.4962 9.64682 17.1474 10.6458 16.7188C10.7876 16.6607 10.904 16.6132 10.9076 16.6132ZM14.4967 17.8667C14.5004 17.9503 14.315 18.6986 14.1624 19.2399C14.0353 19.694 13.9263 20.0499 13.7264 20.6784C13.6394 20.9548 13.5633 21.1834 13.5596 21.1834C13.5558 21.1834 13.5341 21.18 13.5121 21.1727C12.4333 20.9764 11.4669 20.7039 10.5586 20.3407C10.3044 20.2389 9.94119 20.0754 9.91925 20.0572C9.91213 20.0499 10.13 19.9483 10.4062 19.8285C12.0592 19.1055 13.7737 18.2844 14.3624 17.9321C14.4314 17.8884 14.4858 17.8667 14.4967 17.8667ZM6.21013 18.15C6.21744 18.1575 5.756 18.8222 5.1095 19.7269C4.88413 20.0428 4.62257 20.4133 4.5245 20.5513C4.41106 20.7114 4.30085 20.8737 4.19394 21.0382L4.04132 21.2745L3.87782 21.1363C3.68525 20.9764 3.35113 20.6349 3.20207 20.4461C2.88969 20.0574 2.67894 19.6468 2.5955 19.2727C2.55538 19.0984 2.55538 19.011 2.59175 19.0003C3.23545 18.8465 3.87971 18.6951 4.5245 18.546C4.95842 18.4461 5.39193 18.3444 5.825 18.2409C6.03575 18.1901 6.20657 18.15 6.21013 18.15ZM6.67513 18.3281L6.79138 18.4588C7.3145 19.0438 7.8485 19.4762 8.49519 19.8538C8.61144 19.9194 8.69863 19.9775 8.69132 19.9813C8.666 19.9993 6.44619 20.7875 5.41813 21.1436C5.06655 21.2682 4.71416 21.3905 4.361 21.5105C4.35744 21.5105 4.32463 21.4886 4.28844 21.4633L4.223 21.416L4.32838 21.2634C4.66963 20.7694 5.09844 20.228 6.032 19.1019L6.67513 18.3281ZM9.57425 20.4024C9.57782 20.3987 9.73757 20.4568 9.93388 20.5297C10.4062 20.7077 10.7803 20.8204 11.2816 20.9475C11.8993 21.1037 12.7929 21.2563 13.3198 21.3C13.3996 21.3071 13.4431 21.3144 13.4287 21.3253C13.4032 21.3397 12.8692 21.5179 12.4769 21.6412C11.852 21.8375 9.94475 22.4006 8.38982 22.8474C8.20737 22.9008 8.02455 22.9529 7.84138 23.0038C7.805 23.0109 7.685 22.9781 7.685 22.9637C7.685 22.9565 7.77219 22.8439 7.87757 22.7203C8.40069 22.0954 8.92025 21.3979 9.35263 20.7367C9.47263 20.555 9.57425 20.406 9.57425 20.4024ZM8.93488 20.4206C8.93844 20.4244 8.68044 20.8384 8.22988 21.5505C8.0375 21.852 7.823 22.1936 7.74688 22.3134C7.67413 22.4297 7.565 22.6114 7.5035 22.713L7.39813 22.8982L7.34357 22.8838C7.21269 22.8474 6.29357 22.524 6.05019 22.4259C5.76155 22.3111 5.47905 22.1814 5.20382 22.0374C4.91319 21.881 4.55 21.6485 4.57907 21.6412C4.58619 21.6375 5.084 21.5032 5.68344 21.3397C7.27438 20.9074 8.15732 20.6569 8.735 20.4752C8.84038 20.4424 8.93113 20.417 8.93469 20.4208L8.93488 20.4206ZM13.4578 21.4813H13.4615C13.4759 21.5179 12.8874 23.1525 12.6729 23.6683C12.6258 23.7845 12.6076 23.8138 12.5821 23.81C12.5204 23.8063 11.6668 23.6867 11.1472 23.6104C10.2427 23.4724 8.72394 23.207 8.34275 23.1199L8.25538 23.1017L8.79669 22.9781C9.95919 22.7165 10.5187 22.575 11.0855 22.4006C11.8174 22.1768 12.5325 21.9012 13.2253 21.5758C13.3378 21.5252 13.4323 21.4849 13.4578 21.4813Z" fill="url(#paint0_linear_76_612)"/>
<path d="M10.7586 0.0001875C10.6787 -0.0106875 9.38891 0.454312 8.55716 0.792187C7.43441 1.24987 6.56272 1.68581 6.02497 2.06362C5.8251 2.20537 5.57441 2.45606 5.53447 2.55412C5.51956 2.59359 5.51219 2.6355 5.51272 2.67769L5.99966 3.13894L7.15841 3.50962L9.91578 4.00369L13.069 4.545L13.1018 4.27256C13.0909 4.27256 13.0836 4.26881 13.0727 4.26881L12.6585 4.20356L12.5751 4.0545C12.1463 3.29888 11.6742 2.36156 11.398 1.7295C11.1838 1.239 10.9802 0.672375 10.8677 0.2655C10.8058 0.018375 10.7987 0.00375 10.7586 0V0.0001875ZM10.7005 0.185438H10.7042C10.7078 0.189187 10.7222 0.291 10.7368 0.410812C10.7987 0.919312 10.9112 1.40981 11.0893 1.94025C11.2236 2.33962 11.2236 2.31806 11.0674 2.27081C10.6969 2.16919 9.03679 1.88213 7.83416 1.71487C7.6416 1.68956 7.4781 1.66425 7.4781 1.6605C7.46366 1.64587 8.34622 1.18463 8.7351 1.00294C9.23272 0.774188 10.5988 0.203625 10.7005 0.185438ZM7.19835 1.81313L7.3401 1.86037C8.11035 2.12194 10.0465 2.49262 11.1147 2.57981C11.2345 2.59069 11.3363 2.60156 11.3397 2.60156C11.3434 2.60531 11.2418 2.65969 11.1109 2.72137C10.5951 2.97937 10.0283 3.2955 9.63603 3.53888C9.51979 3.61144 9.41441 3.66975 9.39978 3.66975C9.38535 3.66975 9.30903 3.65512 9.22916 3.64406L9.08385 3.62231L8.72047 3.26625C8.27872 2.83603 7.83434 2.40852 7.38735 1.98375L7.19835 1.81313ZM7.05304 1.92581L7.56528 2.56519C7.84503 2.91769 8.12854 3.26269 8.19022 3.339C8.25191 3.41531 8.30272 3.477 8.29897 3.48075C8.28454 3.49162 7.55797 3.34987 7.17304 3.26288C6.77704 3.17194 6.61354 3.12825 6.37016 3.05194L6.17029 2.9865V2.93587C6.17404 2.69213 6.48285 2.32894 7.00578 1.95863L7.05304 1.92581ZM11.4053 2.79769C11.4197 2.79769 11.4379 2.83031 11.4814 2.92838C11.6052 3.20081 11.9901 3.93469 12.0846 4.07644C12.1137 4.12369 12.1645 4.12744 11.6522 4.04381C10.4207 3.84394 10.0247 3.7785 10.0247 3.77138C10.0247 3.76763 10.0611 3.74231 10.1083 3.71681C10.4899 3.50606 10.8748 3.23738 11.2165 2.95031C11.2999 2.88131 11.3762 2.81588 11.3908 2.805C11.3944 2.79769 11.4015 2.79412 11.4053 2.79769Z" fill="url(#paint1_linear_76_612)"/>
<path d="M5.55995 2.50311C5.55995 2.50311 5.48007 2.63043 5.5562 2.81943C5.60345 2.93568 5.74145 3.07724 5.89782 3.22255C5.89782 3.22255 7.51426 4.79924 7.71057 5.02443C8.6042 6.05624 8.99307 7.07342 9.02926 8.47574C9.0512 9.37668 8.88039 10.1687 8.45532 11.0878C7.6997 12.737 6.10482 14.5573 3.64539 16.5771L4.00501 16.4571C4.23751 16.2827 4.55364 16.0976 5.29482 15.6907C7.00576 14.7532 8.9312 13.8924 11.2926 13.0057C14.6929 11.727 20.2839 10.2304 23.4662 9.74361L23.7969 9.6928L23.7459 9.61274C23.4553 9.16218 23.2554 8.88261 23.0156 8.58467C22.3181 7.72011 21.4719 7.01905 20.4364 6.4378C19.0123 5.64205 17.1705 5.02086 14.8382 4.55961C14.3985 4.47224 13.4321 4.30518 12.6474 4.18536C11.3378 3.98385 10.0299 3.77072 8.72401 3.54599C8.29895 3.47324 7.66314 3.3643 7.24182 3.27336C7.02376 3.22611 6.6062 3.12805 6.2792 3.01555C6.01764 2.91374 5.63982 2.81211 5.55976 2.5033L5.55995 2.50311ZM6.49726 3.41136C6.50082 3.40799 6.55895 3.42974 6.63526 3.45505C6.80928 3.51351 6.98498 3.56685 7.16214 3.61499C7.32155 3.65884 7.48137 3.70122 7.64157 3.74211C7.85945 3.79649 8.04114 3.8473 8.0447 3.8473C8.0702 3.8728 8.43714 5.04618 8.5607 5.49674C8.60795 5.66736 8.64432 5.81267 8.64076 5.81267C8.63701 5.81643 8.59707 5.75455 8.54982 5.67111C8.12476 4.9228 7.45276 4.16361 6.6752 3.55311C6.57357 3.48055 6.49726 3.41511 6.49726 3.41136ZM8.28451 3.90561C8.30289 3.90561 8.38276 3.91649 8.48082 3.93824C9.09826 4.07624 10.2064 4.28699 10.9146 4.40699C11.0346 4.42518 11.1291 4.44693 11.1291 4.45405C11.1291 4.46155 11.0856 4.48686 11.031 4.51592C10.911 4.57761 10.428 4.86468 10.2681 4.97343C9.86495 5.24249 9.50157 5.53311 9.24001 5.79468C9.13464 5.90005 9.04389 5.98724 9.04389 5.98724C9.04389 5.98724 9.02214 5.92536 9.00376 5.84924C8.87307 5.34411 8.60064 4.5958 8.35351 4.06893C8.31357 3.98549 8.28095 3.90918 8.28095 3.90205C8.28095 3.90918 8.28076 3.90561 8.28451 3.90561ZM11.4308 4.50486C11.4525 4.51236 11.4889 4.63574 11.5614 4.90818C11.6977 5.45181 11.7564 6.01198 11.7358 6.57205C11.7285 6.72468 11.7212 6.86643 11.7139 6.88461L11.703 6.9208L11.5142 6.85893C11.1255 6.73555 10.4934 6.5503 9.95214 6.39768C9.64332 6.31405 9.39264 6.23793 9.39264 6.2308C9.39264 6.20886 9.8432 5.7583 10.0358 5.58768C10.4025 5.26424 11.3979 4.49418 11.4308 4.50486ZM11.6813 4.54124C11.6921 4.53036 13.1854 4.78818 13.8647 4.91905C14.3698 5.01711 15.1035 5.16974 15.1472 5.18793C15.1688 5.19524 15.0926 5.23855 14.8491 5.34786C13.89 5.78005 13.1781 6.16874 12.4697 6.64105C12.2844 6.76461 12.1281 6.86643 12.1247 6.86643C12.1209 6.86643 12.1172 6.76105 12.1172 6.63393C12.1172 5.94374 11.9794 5.24605 11.7249 4.65768C11.6994 4.59955 11.6777 4.54499 11.6813 4.54143V4.54124ZM15.543 5.30436C15.5539 5.31505 15.5068 5.60943 15.4631 5.7838C15.3323 6.32511 14.9799 7.12799 14.5478 7.88361C14.4713 8.01805 14.4023 8.12699 14.3949 8.13055C14.3878 8.1343 14.2899 8.07974 14.1771 8.0143C13.7558 7.76718 13.2761 7.53486 12.753 7.3168C12.6077 7.25492 12.4806 7.2043 12.477 7.1968C12.4515 7.17524 13.6213 6.40143 14.2388 6.03074C14.7294 5.7328 15.5288 5.28974 15.543 5.30418V5.30436ZM15.8192 5.34786C15.8518 5.34786 16.5129 5.52936 16.8581 5.63118C17.7118 5.88543 18.6928 6.24505 19.3322 6.53568L19.5973 6.65568L19.4121 6.69918C17.8502 7.0588 16.5131 7.47318 15.2233 7.99611C15.1179 8.0398 15.0234 8.07618 15.0163 8.07618C15.0092 8.07618 15.0454 7.99255 15.0926 7.89092C15.4813 7.06611 15.732 6.2053 15.7939 5.47124C15.7974 5.40224 15.8083 5.34786 15.8192 5.34786ZM9.23645 6.85911C9.24732 6.84824 9.75207 6.96805 10.0247 7.04436C10.4391 7.16061 11.3181 7.45499 11.3181 7.47655C11.3181 7.4803 11.22 7.56393 11.1038 7.66555C10.6279 8.06155 10.17 8.4793 9.62139 9.00974C9.45807 9.16592 9.32007 9.29305 9.31276 9.29305C9.30526 9.29305 9.30189 9.2713 9.30526 9.24224C9.38889 8.63193 9.37089 7.84724 9.25464 7.05168C9.24357 6.94986 9.23289 6.86268 9.23645 6.85911ZM19.848 6.86999C19.8551 6.8773 19.6155 7.25492 19.4629 7.46924C19.245 7.7818 18.9251 8.19599 18.2023 9.10424C17.8838 9.50404 17.5666 9.90486 17.2506 10.3067C17.1053 10.4884 16.9854 10.6408 16.9815 10.6408C16.9781 10.6408 16.9309 10.5756 16.8799 10.4957C16.473 9.88518 15.9863 9.35118 15.4086 8.87174C15.3205 8.79722 15.2309 8.72452 15.1399 8.65368C15.0998 8.62461 15.0671 8.59555 15.0671 8.5918C15.0671 8.58111 15.6846 8.3158 16.1533 8.12699C16.9746 7.79268 18.0932 7.39311 18.9326 7.13511C19.3721 6.99711 19.8407 6.86268 19.848 6.86999ZM20.1278 6.94255C20.1422 6.93899 20.2296 6.98268 20.3348 7.04436C21.2177 7.5493 22.0823 8.19974 22.7651 8.86799C22.9577 9.05699 23.4338 9.55105 23.4264 9.55461C23.4264 9.55461 23.2592 9.56924 23.0631 9.58368C21.5336 9.69993 19.5756 10.0232 17.6938 10.4773C17.5665 10.5064 17.4538 10.5317 17.4467 10.5317C17.4396 10.5317 17.5811 10.3901 17.7593 10.2195C18.8636 9.15505 19.3686 8.48305 19.9643 7.28399C20.0479 7.10624 20.1204 6.95343 20.1278 6.94255C20.124 6.94255 20.124 6.94255 20.1278 6.94255ZM12.0373 7.77093C12.0881 7.7818 12.5604 8.00343 12.9165 8.18155C13.2435 8.34486 13.734 8.60643 13.7593 8.62836C13.7631 8.63193 13.5887 8.72268 13.3742 8.82824C12.7338 9.14661 12.1072 9.49198 11.496 9.86342C11.3216 9.9688 11.1763 10.056 11.1728 10.056C11.1581 10.056 11.1619 10.0414 11.2599 9.86342C11.5869 9.26774 11.8485 8.55561 11.9974 7.86168C12.0118 7.8073 12.0264 7.77093 12.0373 7.77093ZM11.565 7.85811C11.5759 7.86899 11.4525 8.3158 11.3762 8.55936C11.2271 9.02061 10.9764 9.59811 10.7331 10.0342C10.6749 10.1359 10.5878 10.2849 10.5405 10.3684L10.4498 10.5137L10.2463 10.3176C10.0101 10.0888 9.8177 9.94705 9.57076 9.81974C9.47251 9.76911 9.3962 9.72543 9.3962 9.71811C9.3962 9.68905 10.0176 9.12599 10.4934 8.71911C10.8347 8.42474 11.5541 7.84724 11.565 7.85811ZM14.4533 9.04611L14.6314 9.16236C15.0383 9.42768 15.5177 9.77999 15.8846 10.0886C16.0916 10.2592 16.4912 10.6192 16.5713 10.7062L16.6148 10.7535L16.3204 10.8371C14.6567 11.2984 13.3706 11.709 11.8703 12.2612C11.703 12.3231 11.5614 12.3737 11.5506 12.3737C11.5288 12.3737 11.5106 12.3919 11.8849 12.0467C12.8439 11.1641 13.6939 10.1904 14.3261 9.24224L14.4533 9.04611ZM13.6939 9.23493C13.7014 9.24224 13.2036 9.9433 12.9056 10.3393C12.5496 10.8116 11.9175 11.6036 11.4814 12.1194C11.2999 12.3339 11.1439 12.5119 11.1364 12.5154C11.1255 12.5192 11.1218 12.4648 11.1218 12.381C11.1218 11.9415 11.0093 11.4727 10.8131 11.0732C10.7295 10.9061 10.7149 10.8662 10.7333 10.848C10.8023 10.7861 11.8594 10.1831 12.5276 9.82349C12.9784 9.58368 13.683 9.2278 13.6939 9.23493ZM9.10201 10.3612C9.11289 10.3612 9.19632 10.4047 9.29101 10.4556C9.51208 10.576 9.72126 10.7172 9.91576 10.8771C9.92307 10.8842 9.82857 10.9607 9.70501 11.0514C9.36001 11.2984 8.83689 11.6946 8.53164 11.9379C8.21195 12.1922 8.20107 12.1993 8.23726 12.1449C8.47726 11.778 8.59707 11.571 8.7242 11.3057C8.84115 11.059 8.94303 10.8054 9.02926 10.5463C9.05832 10.4413 9.0947 10.3612 9.10201 10.3612ZM10.3264 11.3201C10.3444 11.3167 10.3663 11.3494 10.4642 11.4947C10.6712 11.8035 10.8311 12.2177 10.8711 12.5518L10.8786 12.6244L10.3808 12.8171C9.4907 13.1621 8.66964 13.5036 8.11389 13.758C7.91084 13.8532 7.70858 13.9501 7.50714 14.0486C7.32901 14.1394 7.18389 14.2084 7.18389 14.2048C7.18389 14.2012 7.29639 14.1176 7.43439 14.0158C8.52076 13.2276 9.46164 12.3628 10.1664 11.4982C10.2428 11.4075 10.3118 11.3239 10.3189 11.3203L10.3264 11.3201ZM9.76314 11.4583C9.77776 11.4727 9.36357 11.9415 9.08026 12.2286C8.37901 12.9441 7.68526 13.5036 6.82426 14.0484C6.71514 14.1174 6.61707 14.1793 6.6062 14.1864C6.58089 14.2011 6.61332 14.1647 6.99132 13.7542C7.21288 13.5164 7.42263 13.2679 7.61982 13.0095C7.75782 12.8314 7.78314 12.8061 7.98301 12.6645C8.5172 12.2792 9.7487 11.4439 9.76314 11.4583Z" fill="url(#paint2_radial_76_612)"/>
</g>
<defs>
<linearGradient id="paint0_linear_76_612" x1="5.48853" y1="21.6268" x2="7.22564" y2="20.6004" gradientUnits="userSpaceOnUse">
<stop stop-color="#909CA9"/>
<stop offset="1" stop-color="#EDEDEE"/>
</linearGradient>
<linearGradient id="paint1_linear_76_612" x1="5.52841" y1="2.27593" x2="6.92612" y2="2.27593" gradientUnits="userSpaceOnUse">
<stop stop-color="#939FAB"/>
<stop offset="1" stop-color="#DCDEE1"/>
</linearGradient>
<radialGradient id="paint2_radial_76_612" cx="0" cy="0" r="1" gradientUnits="userSpaceOnUse" gradientTransform="translate(12.5969 8.71118) rotate(-171.408) scale(1.80357 3.60739)">
<stop stop-color="#EE352C"/>
<stop offset="1" stop-color="#A91D22"/>
</radialGradient>
<clipPath id="clip0_76_612">
<rect width="24" height="24" fill="white" transform="translate(0.833252)"/>
</clipPath>
</defs>
</svg>
