<svg width="24" height="24" viewBox="0 0 24 24" fill="none" xmlns="http://www.w3.org/2000/svg">
<path fill-rule="evenodd" clip-rule="evenodd" d="M10.7289 8.36C10.7289 7.589 11.3589 7.292 12.4039 7.292C13.5159 7.292 14.8459 7.543 16.0699 8.004C16.6369 8.218 17.2919 7.822 17.2919 7.215V4.588C17.2952 4.38845 17.2355 4.19294 17.1213 4.02924C17.0071 3.86553 16.8443 3.74194 16.6559 3.676C15.2359 3.195 13.8279 3 12.4039 3C8.40294 3 5.74194 5.097 5.74194 8.598C5.74194 14.058 13.2319 13.187 13.2319 15.541C13.2319 16.451 12.4439 16.747 11.3399 16.747C10.0849 16.747 8.56294 16.351 7.17494 15.757C6.61494 15.517 5.95894 15.909 5.95894 16.517V19.215C5.95894 19.615 6.19494 19.978 6.56894 20.119C8.20094 20.734 9.83194 21 11.3389 21C15.4389 21 18.2579 18.963 18.2579 15.422C18.2379 9.527 10.7279 10.576 10.7279 8.36H10.7289Z" fill="#635BFF"/>
</svg>
